<svg xmlns="http://www.w3.org/2000/svg" width="500" height="500" fill="none"><g clip-path="url(#a)"><path fill="#fff" d="M500 0v500H0V0h500z"/><path fill="#000" d="M373.067 299.829c-1.847-.578-3.715-1.155-5.651-1.32-1.669-.132-3.345-.09-5.016-.05-1.604.025-3.196.197-4.785.393-.489.099-.863-.268-1.34-.283-.802-.706-1.879.461-1.115 1.208.045.217.113.424.229.622.238.413.656.711 1.131.775.699.078 1.372-.2 2.025-.402 1.455-.486 2.949-.87 4.477-1.034 1.487-.162 2.984-.271 4.481-.214 1.828.103 3.606.554 5.386.953.432.102.591-.517.178-.648zm-1.204-63.609c.141-1.069.097-2.166.135-3.245.013-.404-.012-.807-.024-1.209.036-.337-.271-.624-.608-.532-.307.084-.465.479-.272.741.044 1.406-.055 2.815-.067 4.221a.45.45 0 0 0 .159.302c.54.705.948 1.487 1.326 2.304.431.957.579 2.004.714 3.036.189.974 1.613.488 1.163-.401-.997-1.663-1.643-3.495-2.526-5.217zm11.755-2.845c.005.705.28 1.395.253 2.111-1.435 1.637-2.467 3.76-2.62 5.954-.014.264.233.485.486.485.383.003.532-.378.486-.707.148-1.426.831-2.718 1.439-3.993.232-.468.516-1.019.942-1.365.156-.269.133-.596.173-.895.018-.535.22-1.057.188-1.59-.101-.77-1.253-.768-1.347 0zm-20.072-5.429c-.048-.722-.04-1.453.002-2.175.14-.428.126-.884.137-1.33.058-1.019.253-2.024.271-3.048.019-1.081-.117-2.167-.326-3.227-.683-3.547-2.948-7.32-6.724-8.073a7.936 7.936 0 0 0-5.325.522c-1.797.734-3.569 1.554-5.416 2.154-1.212.277-2.334-.56-3.356-1.095-.384-.19-.718-.713-1.195-.43-.356.224-.328.715-.019.941a.4.4 0 0 1-.052-.04c.683.684 1.477 1.245 2.217 1.864.292.234.561.501.853.732l.003.002c-.003.009-.009.016-.013.026-.271.765.127 1.569.349 2.301.554 1.671 1.66 3.069 2.585 4.546.487.759.957 1.534 1.502 2.254 1.723 2.373 4.821 2.961 7.578 3.092 1.479.114 3.009.062 4.404-.463.037.056.075.113.11.169.674 1.268 1.63 2.345 2.325 3.596.267.443.949.055.734-.396-.301-.604-.549-1.251-.644-1.922zm-6.592-2.602c-.507-.077-1.058-.198-1.551-.416-.609-.291-1.138-.715-1.723-1.047-1.405-.69-2.563-1.724-3.612-2.872-.784-.841-1.433-1.814-1.856-2.886-.363-.93-.587-1.903-.852-2.863.601-.126 1.194-.347 1.749-.552 1.219-.454 2.438-.926 3.699-1.247 1.687-.324 3.856-.758 5.187.615 2.208 2.57 2.814 6.944 2.629 10.24-.07.425-.142.862-.054 1.286-1.21.086-2.42-.07-3.616-.258zm53.345-9.477c-.354.134-.55.497-.804.758-.683.809-1.452 1.574-2.431 2.011-1.587-2.099-3.445-4.294-5.889-5.391-1.754-.68-3.769-.262-5.393.582-1.888.938-3.082 2.757-3.993 4.592a30.704 30.704 0 0 0-2.096 5.386c-.492 1.768-.618 3.617-.699 5.442a38.273 38.273 0 0 1-1.882 2.908c-.215.241-.569.471-.305.823.548.48 1.03-.429 1.415-.746.607-.533 1.219-1.062 1.887-1.519.194-.176.464-.124.689-.243.1-.048.179-.116.259-.182.362.184.747.349 1.079.51.797.311 1.688.241 2.526.217 1.376-.047 2.81-.093 4.016-.837 1.319-.777 2.392-1.902 3.479-2.965 1.044-1.06 2.055-2.155 2.943-3.351.663-.857 1.184-1.803 1.656-2.776.014-.024.027-.051.041-.077.326-.058.63-.233.821-.523.535-1.007 1.353-1.805 2.081-2.672.227-.272.454-.546.664-.833.161-.221.411-.496.394-.789a.359.359 0 0 0-.458-.325zM404.7 222.1c-1.453 2.224-3.187 4.265-5.06 6.145-1.695 1.652-2.995 1.721-5.218 1.195-.706-.236-1.395-.573-2.149-.614-.174.002-.362-.006-.553-.008.089-.563.121-1.153.244-1.609.38-2.351.929-4.815 1.945-7.002.823-1.669 1.789-3.437 3.684-4.064.825-.273 1.734-.414 2.583-.171 1.764.661 3.137 2.037 4.385 3.402.371.353.654.811 1.016 1.174a17.657 17.657 0 0 1-.877 1.552z"/><path fill="#000" d="M356.187 218.187c-.303.319-.353.779-.546 1.161-.215-1.353-.165-2.851.6-4.031.169-.276.568-.586.348-.936-1.055-1.127-2.386 2.489-2.587 3.223-.647 1.731-1.02 6.103 1.363 6.59.695.082 1.269-.458 1.436-1.101.458-1.373.746-2.763.727-4.22.028-.711-.789-1.252-1.341-.686zm41.843 2.997c-.541.404-.562 1.069-.632 1.684-.425-1.596-.414-3.357.424-4.813a.614.614 0 0 0-.914-.657c-1.265 1.34-1.591 3.338-1.895 5.1-.356 1.955.197 5.664 2.537 6.088 1.684.102 1.694-1.607 2.01-2.813.211-1.318.632-2.723.274-4.042-.29-.678-1.201-1.073-1.804-.547zm-66.092-38.511c.328-.172.634-.398.925-.647l.003-.003c.556-.308 1.112-.622 1.575-1.062 2.008-1.581 3.805-3.404 5.73-5.078 1.006-.569 2.027-1.116 2.985-1.761 1.924-1.105 3.81-2.425 5.961-3.038 3.136-.4 6.293.126 9.389.62 1.729.332 3.486.587 5.243.336 3.943-.577 7.385-2.955 10.192-5.675.455-.455.947-.878 1.338-1.391.382-.509.563-1.115.881-1.658.004-.011-.007-.023-.015-.023-.009-.002-.003.006.001.008l.001.001v.002c-.47.194-1.01.161-1.503.287-1.208.341-2.333.924-3.511 1.355-3.119 1.216-6.32 2.499-9.693 2.722-2.984-.006-5.948-.428-8.907-.769-1.694-.165-3.425-.506-5.116-.167-3.225.84-7.885 3.977-9.668 6.793-.215.378-.439.75-.67 1.117-.012.02-.027.038-.039.058a44.43 44.43 0 0 0-2.256 2.717c-.732 1.051-1.564 2.054-2.137 3.204-.252.557-.348 1.165-.54 1.74l-.045.084c-.004.001-.005.006-.009.005l-.006-.001c-.003-.001-.004.004-.002.006.004.003.008-.003.011-.001a.022.022 0 0 1-.003.005c-.037.07-.078.142-.115.214zm49.193-17.956c-.003-.001-.005.003-.003.006l.013.004c.388.555.532 1.272.875 1.871 1.239 1.863 2.969 3.367 4.716 4.745 1.113.87 2.258 1.745 3.664 2.068 1.927.341 3.899.358 5.819.773.942.204 1.96.229 2.823.693 1.533 1.006 2.985 2.134 4.467 3.211.809.654 1.797.957 2.748 1.362-.052-1.271-.349-2.579-1.176-3.588-.935-1.398-1.908-2.802-3.131-3.965-1.031-1.003-2.425-1.423-3.792-1.74-1.147-.293-2.296-.6-3.466-.799-1.638-.37-3.396-.097-4.954-.781-1.995-.879-3.933-1.883-5.839-2.938-.59-.36-1.258-.537-1.921-.706-.269-.062-.56-.211-.843-.216z"/><path fill="#000" d="M341.448 187.832c1.139-.848 2.324-1.646 3.65-2.174 2.364-1.01 4.741-2.001 7.239-2.635 1.872-.496 3.809-.491 5.72-.759 2.554-.311 5.063-.91 7.549-1.559 1.897-.538 3.832-1.083 5.504-2.159 1.104-.735 1.902-1.813 2.763-2.802.76-.917 1.622-1.759 2.259-2.77.28-.465.499-.963.773-1.431.009-.014.018-.034.028-.046-.29.098-.601.282-.909.404-1.592.675-2.845 1.942-4.472 2.564-1.726.692-3.548 1.131-5.327 1.665-2.785.835-5.566 1.773-8.463 2.122-1.862.213-3.742.299-5.607.085-.958-.116-1.862-.472-2.799-.678-1.471-.331-3.031-.187-4.438.342-2.007.764-3.551 2.415-4.821 4.095-.976 1.402-1.726 2.939-2.666 4.366a85.876 85.876 0 0 1-2.866 4.465c-1.109 1.657-2.349 3.248-3.146 5.086-.077.255.121.519.366.519.398-.051.57-.494.841-.749a42.51 42.51 0 0 1 2.309-2.456 79.986 79.986 0 0 1 6.513-5.495zm58.17-7.268c-2.414-.92-4.909-1.586-7.421-2.177-2.132-.462-4.204-1.13-6.141-2.143-.492-.247-.953-.543-1.415-.84-1.252-1.048-2.548-2.021-4.162-2.522-.009-.004-.052-.024-.071-.016.005.019.016.04.023.064.232.796.424 1.613.818 2.354.644 1.078 1.504 2.018 2.231 3.044 1.236 1.518 2.408 3.477 4.449 3.934 8.41 1.832 10.676 3.633 16.637 9.656a66.156 66.156 0 0 1 3.605 4.221c.602.8 1.441 1.397 2.248 1.974.116-1.568-.55-3.335-1.495-5.038-.022-.132-.044-.264-.079-.394-.343-1.127-.896-2.182-1.343-3.273-.958-1.848-1.894-3.722-3.021-5.545-.989-1.815-3.042-2.575-4.863-3.299z"/><path fill="#000" d="M376.384 184.888a36.111 36.111 0 0 1-3.406 2.661c-.315.21-.633.42-.959.617-.378.191-.767.355-1.194.436-.909.126-1.837.035-2.751.018-1.659-.012-3.317-.073-4.942-.441-3.398-.842-6.874-1.26-10.372-1.337-2.789-.246-5.409.953-7.653 2.508-2.363 1.577-4.179 3.771-6.067 5.857-.618.626-1.23 1.271-1.756 1.977l-.089.087c-.849.771-1.561 1.67-2.013 2.73 1.43-.813 2.72-1.688 4.222-2.461 2.446-1.152 5.069-1.903 7.65-2.69 2.494-.609 4.991-1.243 7.528-1.644 2.644-.34 5.316-.375 7.979-.45a91.14 91.14 0 0 1 6.141.115c1.163.048 2.495.257 3.44-.586 1.623-1.636 3.23-3.293 4.772-5.007 1.111-1.124 1.943-2.596 2.127-4.154-.937.556-1.834 1.001-2.657 1.764zm5.575 7.716a32.596 32.596 0 0 1 4.267 1.688c1.782.793 3.192 2.142 4.731 3.303a51.623 51.623 0 0 1 4.586 4.029c1.187.842 2.749.802 4.138 1.003 2.486.306 4.998.261 7.487.509.834.012 1.646-.298 2.475-.289a7.147 7.147 0 0 1-1-1.291c-.384-.57-.965-.923-1.573-1.214-.788-1.005-1.966-1.517-3.178-2.167-1.357-.732-2.907-.918-4.356-1.395a29.5 29.5 0 0 1-5.72-2.802c-2.457-1.578-5.136-2.766-7.517-4.468-1.036-.748-2.129-1.425-3.125-2.228-.658-.722-1.388-1.371-2.036-2.099-.23-.382-.465-.761-.593-1.188-.714 1.312-.565 3.02-.661 4.506-.335 2.116-.25 3.463 2.075 4.103z"/><path fill="#000" d="M376.162 180.63c-1.218-.294-2.522.024-3.575.671-.644.405-1.284.826-2.004 1.087-1.87.538-3.815.778-5.7 1.261-1.653.483-3.292.689-4.938 1.236-.427.158-.884.286-1.299.443a8.463 8.463 0 0 0 3.24.279c2.688-.206 5.397-.236 8.041.36 1.547.33 3.171.087 4.515-.759.953-.468 1.754-1.224 2.196-2.197a3.259 3.259 0 0 0 .291-2.031 2.456 2.456 0 0 0-.767-.35zm18.281 9.724c.51.043 1.033.052 1.529-.048-.853-.631-1.644-1.348-2.592-1.836-.997-.523-2.014-1.01-2.961-1.623-1.936-1.213-3.083-3.253-4.622-4.881-1.068-1.061-2.634-1.361-4.065-1.033-.045.439-.075.874-.012 1.318 1.059 5.309 8.195 7.019 12.723 8.103zm-18.595 5.775c-1.394-.787-2.957-.301-4.424-.066-1.036-.176-2.134-.492-3.215-.608-2.692-.44-5.636-.857-8.227.22-.396.181-.796.373-1.156.622.188.077.407.13.606.197 1.345.534 2.74.898 4.116 1.337 2.302.792 4.317 2.338 6.713 2.853 3.033.321 5.513-1.379 5.587-4.555zm16.128 5.796c-.515-.944-1.241-1.88-2.258-2.344-1.593-.926-3.259-1.715-4.949-2.447a24.463 24.463 0 0 0-1.309-.512 3.498 3.498 0 0 0-1.575-.604c-.57-.073-1.108.044-1.679-.057.11.574-.132 1.132-.128 1.71.003.43.083.833.216 1.234.343 1.857 2.428 1.862 3.917 2.143 1.778.227 3.552.482 5.315.81.809.143 1.673-.212 2.45.067zm-20.809 12.098c-.149.398-.288.8-.515 1.162.207.052.427.082.649.126.979.291 2.068.465 2.974-.138 1.99-1.462 2.898-3.978 2.99-6.398-.001-.038.012-.125-.012-.138-.505.476-1.119.853-1.693 1.252-.579.41-1.126.868-1.71 1.273-1.14.702-2.305 1.5-2.683 2.861zm-2.911-4c.963-.6 1.904-1.243 2.903-1.781.676-.422 1.265-1.004 2.008-1.3-.857-.246-1.592-.789-2.473-.954-2.123-.502-4.224.09-6.076 1.155-1.176.639-1.785 1.915-1.878 3.216-.078.688.004 1.45.345 2.062.245.384.564.705.807 1.094.127.163.203.393.379.504.006.002.019-.001.011-.007l-.002-.001c-.029-.631.608-.985 1.01-1.372.482-.561.972-1.116 1.471-1.661.477-.35.998-.636 1.495-.955zm-12.291-2.285c.51-.393 1.211-.525 1.676-1.003.182-.142.391-.247.592-.357.742-.364 1.502-.699 2.313-.877.659-.139 1.334-.25 1.964-.492.805-.26 1.202-1.134 2.012-1.357-.584-.335-.866-.991-1.435-1.379-1.059-.683-2.405-.62-3.612-.498-2.218.145-4.782 1.782-4.492 4.268.125.699.5 1.314.767 1.964.007.014.051.029.032.011-.004-.109.109-.205.183-.28zm-9.044 1.264c1.751-2.206 4.871-3.152 6.259-5.714a3.97 3.97 0 0 1 .332-.431c-.845-.308-1.675-.822-2.617-.733-1.28.139-2.482.811-3.383 1.716-1.333 1.401-.983 3.453-.591 5.162zm39.216 1.107c-.712-.488-1.615-.229-2.334-.541l-.001-.001c.095.412-.159.767-.254 1.149-.083.39-.121.785-.056 1.181.35 1.867 1.913 3.504 3.906 3.335.936-1.742.62-3.977-1.261-5.123zm2.642-1.559c.381.335.455.854.628 1.308.745 1.359.922 3.483 2.686 3.927.12.127.203.246.287.409.235-.399.705-.482 1.052-.76 1.126-.916 1.091-2.555.382-3.721-1.257-2.116-3.131-2.058-5.219-1.347l-.001-.001c0-.004-.003-.01-.007-.007-.036.054.15.163.192.192zm8.816 1.62c3.662-1.253 2.116-6.348-1.743-4.835-.013.007-.045.02-.02.028.368.322.231.839.195 1.264-.175 1.421.867 2.451 1.568 3.543zm10.89-2.4a7.877 7.877 0 0 0-1.186-.844c-1.334-1.417-2.988-3.331-5.153-2.634v-.001c.001-.008.007-.014.008-.023.001-.003-.004-.006-.007-.003-.083.055.037.118-.011.207-.762 1.404.084 2.805.777 4.039.312.583.615 1.18 1.029 1.697.333.417.76.717 1.227.967.871.581 1.849.983 2.888 1.128.496.119 1.018.157 1.512.015.35-.071.754-.191 1.103.018-.182-.612-.049-1.284-.212-1.934-.384-1.035-1.131-1.927-1.975-2.632zm-42.452 12.1c1.995 2.506 4.088 3.069 6.939 4.156.255.153.646.205.793-.118.921-.56 1.793-1.074 2.67-1.733.327-.234.712-.399.993-.69.822-1.063.732-2.534 1.036-3.792.174-1.025.456-2.055.525-3.102a8.708 8.708 0 0 0-.113-1.807 10.088 10.088 0 0 0-.68 1.707c-.497 1.898-.639 3.851-1.222 5.744-.654 1.559-2.293 2.286-3.695 3.028-1.1-.437-2.169-.948-3.242-1.449-1.295-.688-2.612-1.603-4.004-1.944zm19.129.209c-.078-1.378-.252-2.774-.727-4.073-.064-.154-.266-.773-.177-.233.346 6.457-1.305 4.11-2.41 8.317 2.118-.156 3.534-1.9 3.314-4.011z"/><path fill="#000" d="M386.281 226.603c-.961.221-2.51 2.218-3.334 1.522-.42-.444-.462-1.115-.542-1.693.042-.555-.107-1.186-.806-1.197l.001-.002c-.282-.015-.541.175-.683.402a.737.737 0 0 0-.105.302c-.784.713-1.423 1.855-2.542 2.027l.012-.007c-.735-.299-.69-2.98-.511-3.672.141-1.023-1.222-1.581-1.843-.76-1.217 1.44-2.311 3.036-3.866 4.141-1.151.981-2.311-.031-3.223-.819-.919-.877-1.847-1.749-2.952-2.399-.142-.073-.308-.209-.455-.218.418.329.749.782 1.121 1.167 1.039 1.052 1.978 2.206 3.094 3.181 1.051 1.014 2.327.824 3.421-.008 1.062-.759 1.924-1.757 2.95-2.561.217.629.525 1.223.869 1.793.245.403.483.829.906 1.066 1.314.582 2.503-.675 3.315-1.563.137.343.294.68.508.982.386.548.976 1.025 1.672 1.066 1.18.082 2.339-.576 3.007-1.529.299-.417.573-.895.598-1.42-.194.07-.411.118-.612.199zm25.921-14.676c.155 2.871-.976 3.611-.012 6.758 0 .002.003.003.003.003.932-.549 2.015-.916 2.677-1.826 1.098-1.382 2.127-3.16 1.549-4.973-.404-1.312-1.561-2.152-2.42-3.16-.77-1.037-1.825-1.75-3.001-2.255.008.624.19 1.452.311 2.132.3 1.074.799 2.185.893 3.321zm-5.823 16.706c-1.218 1.361-2.18 2.908-3.238 4.388-.43.714-1.03 1.302-1.467 2.005-.327.585-.511 1.171-.918 1.736 1.523.017 2.565-.254 3.858-1.091 2.248-1.003 3.786-3.005 4.741-5.222 1.138-2.507 2.831-5.364 1.851-8.151-1.66 2.068-3.096 4.311-4.827 6.335zm-68.02-11.839c.23-.971.699-1.923.682-2.95-.02-.914-.042-1.826.137-2.726.252-1.684.612-3.415 1.459-4.91.69-.974 1.786-1.551 2.738-2.236 1.29-.84 2.597-1.65 3.936-2.411a6.785 6.785 0 0 0 2.925-2.859l.001-.002c-1.501.203-2.896.968-4.316 1.502-2.562.954-5.433 1.239-7.77 2.706-2.267 1.681-3.412 5.103-3.2 7.855.158 1.25.889 2.305 1.303 3.472.377 1.08 1.251 1.848 2.105 2.559zm6.877 12.189c-2.007-.99-3.292-2.545-4.687-4.327-1.046-1.581-1.826-3.326-2.702-5-.533-.971-1.485-1.575-2.326-2.238-.328.957-.669 2.234-.531 3.31.293 1.731.611 3.467 1.132 5.145 1.124 4.465 6.213 5.625 10.185 6.2 1.216.322 2.386-.023 3.547-.323-1.6-1.745-2.547-1.881-4.618-2.767zm-17.669-44.652c-.624.748-1.242 1.499-1.86 2.251-1.572 2.045-3.569 3.85-4.529 6.292-.745 1.894-1.051 3.93-1.294 5.942-.227 2.386-.444 4.857.464 7.133 1.341-1.647 1.822-3.747 2.503-5.718 1.246-3.25 2.336-6.555 3.49-9.838.617-1.65 1.391-3.206 2.275-4.738.549-.917 1.019-2.082 1.097-3.094-.715.58-1.561 1.033-2.146 1.77zm94.801-5.992c1.791-.247 2.51-1.939 2.029-3.541-1.298.782-2.476 1.829-2.032 3.538 0 .002.003.003.003.003zM141.934 304.881c1.232-3.973.568-7.917.009-11.934a155.248 155.248 0 0 0-1.708-9.979 27.328 27.328 0 0 0-.516-2.319c-.279-.862-.794-1.617-1.337-2.329-.423.9-.669 1.989-.6 3.005.202 2.073.384 4.15.525 6.23-.327 2.564-.536 5.145-.977 7.693-.703 5.023-2.128 9.883-3.414 14.774-.765 3.266-1.208 6.597-2.021 9.852-1.017 3.013-2.22 5.96-3.271 8.961-.273.816-.537 1.636-.735 2.474-.061.268-.142.576-.08.848a.605.605 0 0 0 .589.477c.432.005.629-.484.813-.824.389-.576.824-1.127 1.237-1.685 1.673-2.24 3.267-4.555 4.614-7.007 1.243-2.296 2.241-4.708 3.15-7.153 1.363-3.65 2.723-7.314 3.722-11.084zm112.518-82.929c1.595-1.318 2.867-2.969 4.102-4.61h-.001c.114-.301-.027-.7-.38-.777-.379-.112-.654.195-.879.454-1.688 1.787-3.463 3.493-5.257 5.172-1.41 1.388-3.378 2.27-4.98 3.448-1.519 1.055-2.963 2.211-4.49 3.256-3.254 2.196-6.531 4.359-9.739 6.623-1.448 1.152-3.152 2.135-4.148 3.738-2.507 4.958-3.549 10.507-4.799 15.88-.382 1.767-.729 3.543-1.144 5.302-.07.29-.139.58-.219.867-.163.503-.453 1.352.328 1.431.411.004.589-.366.764-.681.166-.297.335-.594.507-.888 1.061-1.767 1.957-3.63 3.137-5.325 4.357-6.716 9.788-12.652 14.646-18.997 1.844-2.635 3.542-5.39 5.759-7.738 2.221-2.424 4.654-4.651 6.793-7.155z"/><path fill="#000" d="M482.678 328.874c-.553-2.491-.598-7.475-3.289-8.434-2.371-1.214-4.971-1.867-7.571-2.376-1.735-.415-3.524-.46-4.256-2.536-1.743-2.921-3.61-5.774-5.071-8.854 1.769 1.188 8.099 5.482 7.47.561-.818-2.14-2.393-3.916-3.348-5.999-2.18-4.778-2.375-10.145-3.102-15.274-.758-7.743-1.892-15.447-2.447-23.208-.457-2.754-.294-10.783-1.897-14.436 0-.093-.006-.189-.018-.287-.119-.694-.262-1.398-.608-2.018-1.79-2.757-4.535-4.804-7.003-6.93-3.471-2.886-7.008-5.726-10.156-8.967-1.981-2.2-3.321-4.872-4.374-7.618-1.019-2.607-1.925-5.264-2.467-8.016-.341-1.555-.24-3.277-1.075-4.68-.466-.734-1.165-1.282-1.799-1.863-2.577-2.253-5.19-4.467-7.703-6.792-.27-.226-.532-.471-.79-.724a8.795 8.795 0 0 0-.068-.138c-.148-.3-.295-.603-.475-.886a1.991 1.991 0 0 0-1.411-.984 73.388 73.388 0 0 0-.183-4.171c-.074-1.243-.319-2.488-.818-3.635a92.94 92.94 0 0 0-.283-.544c2.358-.699 4.531-2.76 6.352-4.199 2.676-2.154 4.501-4.657 5.001-8.175.617-2.611.156-5.216-.629-7.732-1.276-4.593-2.552-10.673-7.263-12.902-3.563-1.446-5.851.099-7.511 3.276-1.523 2.239-4.415 6.779-6.922 8.246-.233-.532-.53-1.026-.979-1.428-1.278-1.406-2.661-2.709-3.987-4.069-.482-.639-.824-1.171-1.402-1.505-.97-1.539-2.011-3.028-3.342-4.301-3.407-3.788-7.251-7.12-11.063-10.484-2.121-2.028-3.821-4.43-5.582-6.763-3.09-3.795-6.31-7.583-10.037-10.769-6.381-4.692-18.648-.738-26.754-3.069-7.201-7.694-7.012-10.707-18.78-9.756-11.315.643-22.588 1.934-33.66 4.403-3.595.91-7.462 1.372-10.618 3.451-8.04 5.866-14.886 13.221-22.617 19.481-6.55 5.391-14.544 8.535-22.582 10.984-4.956 1.546-10.153 2.014-15.315 2.281-4.01.335-30.053.923-16.368 7.692-7.82.446-6.745-2.526-13.462 3.787-6.39 6.279-12.413 12.918-18.496 19.513-5.386 5.693-11.613 10.531-18.279 14.635-.799.471-1.594.949-2.393 1.421-.251.045-.503.094-.758.148a72.222 72.222 0 0 0-3.626.788 1.875 1.875 0 0 0-1.533.261 6.983 6.983 0 0 0-.21.176c-1.615.416-3.223.86-4.834 1.289-7.744 2.216-15.844 1.943-23.799 1.484-2.537-.05-4.893.942-7.157 1.982-1.474.657-2.942 1.326-4.43 1.952-8.03 3.237-15.567 7.548-23.418 11.179-6.13 2.775-12.4 5.324-18.91 7.066-2.152.564-4.846 1.181-7.191 1.144-1.935-.065-3.937-.394-5.67-1.289-1.338-.916-2.264-2.312-3.29-3.545a46.538 46.538 0 0 1-2.861-4.374c-2.701-5.271-5.841-11.544-3.497-17.487.526-1.222 1.509-2.148 2.402-3.105 7.02-6.504 15.159-11.643 22.872-17.267 4.138-2.948 7.795-6.475 11.602-9.822 4.46-3.953 8.606-8.242 12.9-12.369 2.243-2.421 4.099-5.167 5.992-7.86.99-1.454 1.999-2.901 2.721-4.51 2.135-4.634 1.236-8.296-.453-12.439a68.99 68.99 0 0 0-1.442-6.208c-1.506-4.891-4.12-9.38-6.902-13.645-.55-.79-1.07-1.605-1.68-2.351-.195-.232-.412-.488-.727-.54a.772.772 0 0 0-.454.067c-1.234-.208-1.184 1.319-1.361 2.278-1.494-3.26-3.065-6.525-5.077-9.501-2.001-2.892-4.785-5.213-8.017-6.609-5.88-2.633-12.781-.938-18.611 1.046-2.432.91-4.938 1.921-6.892 3.676-1.367 1.339-2.113 3.405-1.878 5.307.26 1.149.949 2.138 1.453 3.19.644 1.241 1.262 2.514 1.996 3.709-1.118-.776-2.297-1.836-3.73-1.841-1.312.006-2.174 1.35-2.022 2.571.095 1.225.575 2.373 1.023 3.505.877 2.216 2.07 4.288 3.23 6.367 1.174 2.157 2.586 4.222 4.583 5.697 3.862 3.03 8.12 5.531 11.848 8.743 1.58 1.475 3.592 2.894 4.148 5.091.13.915-.57 1.628-1.051 2.329-3.355 4.083-6.923 7.992-10.483 11.898-3.178 3.339-6.284 6.76-9.743 9.817-3.08 2.672-6.25 5.241-9.352 7.884-5.033 4.181-10.062 8.374-14.652 13.048-2.173 2.136-4.29 4.345-6.051 6.841-2.052 2.61-1.483 5.137-1.258 8.187.419 4.993 1.187 9.973 2.463 14.823 1.26 4.846 3.088 9.518 5.344 13.987 1.568 3.07 3.157 6.236 5.67 8.654 2.482 2.242 5.528 3.78 8.435 5.391 2.254 1.147 4.518 2.298 6.93 3.071 6.306 2.022 12.988 2.363 19.557 2.658 2.925.074 6.039.249 8.727-1.101 3.384-1.821 6.45-4.168 9.72-6.179 5.014-3.177 10.079-6.281 15.368-8.981 3.063-1.541 6.148-3.092 9.416-4.152 4.782-1.52 9.821-2.137 14.813-2.462l.038-.002c-2.871 2.997-5.754 6.004-8.763 8.998-6.674 6.831-10.938 9.633-12.343 19.782-1.49 9.024-2.734 18.17-5.376 26.945-.71 2.419-1.63 4.777-2.197 7.236-.263 1.157-.364 2.337-.502 3.513l-.156.342c-.584.499-1.258.923-1.838 1.406-2.704 2.032-5.736 3.557-8.542 5.416-1.498 1.411-1.753 3.618-2.338 5.5-3.815 15.333-4.318 22.427-14.988 35.117-1.882 2.627-3.948 5.179-6.868 6.697-1.923 1.043-4.238 1.73-5.36 3.767a16.04 16.04 0 0 0-1.26 2.471c-.637 1.24-.726 3.153-2.243 3.633a47.163 47.163 0 0 1-4.477 1.368c-1.264.274-2.681.462-3.44 1.647-1.248 2.298-2.03 5.007-1.36 7.604.115.671.045 1.449.318 2.069a8.378 8.378 0 0 0-.232.117c-.96.599-2.625 1.313-2.313 2.694.379 1.349 2.05 1.263 3.177 1.445l.007.001c-.396 1.137.186 2.742.896 3.625.155.197.332.377.525.535-.211 1.257-.1 2.679.944 3.536.12.142.255.28.402.402-1.075.55-2.264 1.289-2.318 2.055-.027 1.313 1.778 1.36 2.87 1.556-.14 1.298 1.087 2.808 2.17 3.372 1.786.857 3.855.73 5.788.878a9.554 9.554 0 0 0 3.464-.339c-.473.358-.925.745-1.345 1.173-.623.642-.223 1.651.59 1.881.477.167.984.179 1.483.182 1.758.005 4.754-.602 6.776-1.871.326.618 1.384.984 1.97 1.158 4.965.621 10.957-5.166 13.916-8.763 2.814-3.717 3.838-8.42 5.686-12.638 1.172-3.024 2.23-6.095 3.655-9.011 1.303-2.561 3.022-4.883 4.646-7.244 2.405-3.509 5.119-6.79 7.995-9.92.706-.76 1.43-1.506 2.235-2.16l.176.004c1.66.015 3.32 0 4.979-.043l.123.04.018-.044c3.573-.096 7.142-.322 10.702-.657 2.423-.179 4.849-.403 7.266-.697a3.66 3.66 0 0 0 1.343-.17c4.1-.541 8.169-1.29 12.157-2.358-.396.44-.731.812-.969 1.049-1.678 1.867-3.216 3.856-4.793 5.808-1.403 1.779-3.086 3.626-4.327 5.586-1.838 3.024-1.855 6.737-3.391 9.901-.607 1.39-1.425 2.532-2.34 3.746a2.94 2.94 0 0 0-.569-1.163c-.484-.549-1.037-1.329-1.843-.837-.773.682-1.604 1.293-2.449 1.889.5-.827.914-1.725 1.257-2.669 1.804-4.5 4.249-8.693 6.66-12.884l-.006.002c.271-.463-.274-1.023-.746-.787-.421.218-.672.651-.98.998-.797.989-1.545 2.016-2.291 3.043-2.251 3.11-4.466 6.247-6.875 9.24-.839 1.006-1.453 2.185-2.361 3.133-1.513 1.341-3.583 1.771-5.528 2.062-.949.135-1.821-.088-2.662-.436a5.176 5.176 0 0 0 1.799-.965c.859-.732.757-1.95.559-2.953.316-.536-.157-1.271-.776-1.274a10.8 10.8 0 0 0-1.439.093c.595-.298 1.187-.602 1.776-.911 3.789-1.808 4.798-3.557 6.547-7.212 1.769-3.259 4.047-6.205 6.494-8.981.185-.212.362-.436.561-.635.167-.168-.088-.433-.266-.282a111.156 111.156 0 0 0-6.166 6.062c-.815.848-1.634 1.695-2.414 2.576-1.246 1.4-2.47 2.874-4.15 3.767-1.602.765-3.185 1.565-4.72 2.458a15.89 15.89 0 0 1-2.306.997c-.473.187-.942.391-1.449.2-.596-.179-1.061-.633-1.452-1.104a10.821 10.821 0 0 0 2.09-.501c1.384-.498 3.588-1.211 3.306-3.059-.132-.531-.366-1.47-.974-1.591a.429.429 0 0 0-.398.109c-.371-.161-.839.01-1.212.135a.969.969 0 0 1-.091.006c-2.195.171-4.433.545-6.317 1.755-.671.453-1.465 1.16-1.32 2.06.07.437.365.784.775.946.506.186 1.057.171 1.592.203-.16.728.376 1.399.74 1.998.459.752 1.066 1.452 1.787 1.98-.503.118-.998.265-1.482.449-.294.134-.58.29-.851.466-.958.666-.407 1.523.506 1.823 1.618.635 3.286 1.206 5.001 1.507.025.225.114.453.283.666 1.059 1.458 2.69 2.506 4.497 2.693 2.517.304 5.093-.05 7.522-.741.077-.023.154-.049.23-.074-.426.544-.772 1.162-.567 1.675.628 1.063 2.09.411 3.014.161 2.069-.663 4.198-1.325 5.996-2.578a4.29 4.29 0 0 0 1.235-1.252c.857.473 2.243-.407 3.012-.837 4.431-2.75 5.364-8.334 7.011-12.892 2.746-5.063 6.045-9.851 9.52-14.442.409-.54.863-1.051 1.305-1.569a63.801 63.801 0 0 0 1.839-.655c1.636-.648 3.276-1.408 4.535-2.671.203-.205.404-.413.602-.622.083.217.211.429.388.625 3.412 3.802 7.83 6.661 12.307 9.069 3.877 2.732 8.671 3.425 13.318 3.42 16.138.163 35.506-6.12 47.722-16.797 1.398-1.308 2.736-2.694 3.933-4.185 1.339-3.545 2.076-7.386 2.701-11.128.944 1.263 2.745 6.393 4.68 3.829.361-1.344.059-2.812.249-4.197.485-6.349 1.124-12.684 1.618-19.034.984-7.876 2.151-11.706 7.867-17.452.434-.446.87-.886 1.321-1.311 3.839.78 7.747 1.179 11.641 1.57 5.15.489 10.343.261 15.509.258 2.265-.023 4.529-.065 6.789-.193 1.908.32 3.821.569 5.703.989a45.286 45.286 0 0 0 2.705 1.989c.15.092.244.223.292.391.117.43.291.84.437 1.259.054.202.161.369.3.497a137.905 137.905 0 0 0-.261 3.677c.063 2.826 1.751 5.319 3.832 7.111 1.061.961 2.221 1.869 3.624 2.258.219.069.436.099.643.095.004.048.009.095.015.143.106.646.086 1.341.382 1.936.406.743 1.535.673 1.917-.058.389-.682.768-1.371 1.169-2.047.368.203.789.266 1.204.331 2.14.527 4.677-.386 6.126-2.042.989 1.557 2.685 2.577 4.499 2.885a4.649 4.649 0 0 0 2.033.023c-.007.27-.014.54-.024.809-.022.855-.255 2.066.712 2.491.927.423 1.656-.42 2.096-1.136.321-.449.65-.893.969-1.343.196.141.404.265.612.381 1.506.709 3.86.337 5.265-.493.559-.334 1.015-.804 1.389-1.37.705.736 1.635 1.26 2.665 1.348.437.037.818.009 1.145-.066-.081 1.146-.074 2.62 1.367 2.668.918-.006 1.412-.938 1.937-1.559.339-.423.659-.863.956-1.315.252.071.518.117.829.157 3.125.449 4.902-1.421 5.918-3.849.863.057 1.429-.149 1.788-.525.298 1.524.854 2.722 1.944 2.844.728.083 1.341-.337 1.759-.898a6.99 6.99 0 0 0 .807 2.069c1.019 1.64 1.497 2.976 3.709 2.758-1.539.477-2.123 1.787-.587 2.748 1.647 1.121 3.388 2.462 5.426 2.663.787.02 1.44-.531 2.085-.909 1.18-.769 2.416-1.439 3.631-2.149-.519 1.005-1.46 1.66-2.158 2.511-.476.78.01 1.805.86 2.047 1.715.32 3.516-.111 5.202-.456 1.743-.363 3.393-1.208 4.541-2.588 1.923-.225 3.643-1.439 5.078-2.68 1.359-1.155 2.743-2.832 2.453-4.734-.14-.721-.396-1.401-.696-2.063 1.609-.443 3.263-2.738 3.861-4.031.909-2.126-.101-3.915-.835-5.88-.448-1.277-.787-2.586-1.079-3.906a9.376 9.376 0 0 0-.068-2.657 10.38 10.38 0 0 0-.234-.857v-.001c.008-.137.019-.275.028-.414.051-2.03-.346-4.042-.435-6.062.075-.423.188-.845.344-1.249 2.468-1.321 3.936-3.866 5.239-6.28.285.075.573.142.862.202 1.396.293 2.821.11 3.924-.866.9-.657 1.701-1.415 2.436-2.234.176.249.37.486.556.719 1.932 2.146 3.742 4.423 5.847 6.404 1.471 1.207 2.824 2.168 4.492 3.315 2.152 1.352 4.217 2.84 6.082 4.572 1.458 1.545 2.875 3.132 4.294 4.715 1.352 1.77 2.299 3.815 3.773 5.495.093.108.197.192.307.255-.979 3.413-2.994 6.59-4.098 9.961-.712 1.6-1.006 3.386-.398 5.069.381 1.272 1.09 2.399 1.817 3.496.667 1.033 1.102 2.167 1.503 3.312-.728.605-1.473 1.19-2.193 1.784-3.879 2.891-3.923 5.355-4.024 9.892.014 1.313-.009 2.633.19 3.934.355 2.138 1.5 4.367 3.655 5.116.294.14.574.201.827.196.006.105.014.211.023.317.148 1.775.291 4.677 1.851 5.79.821.508 1.857-.016 2.171-.871.044.03.089.058.137.085 1.68.963 3.71.354 5.272-.562l.141-.087c-.071 1.277-.02 2.563.346 3.775.638 1.666 2.081 3.059 3.767 3.641.042.017.085.031.128.043-.504 1.946-.775 3.882.136 4.608.909.742 2.084.029 3.246-1.342.892.536 1.954.753 2.992.806 1.943.28 3.429-.645 4.498-2.022.283 1.912 1.035 3.367 3.612 4.433.038.016.077.031.115.045-.171 1.404-.007 2.606 1.091 2.846.99.031 1.579-.785 2.105-1.593.8.43 1.716.674 2.61.682 2.519.213 3.954-.796 4.894-2.343.503 1.231 1.345 2.276 2.617 2.799.204.11.42.171.634.19.016 1.028.159 1.799.513 2.071 1.594 1.057 2.567-1.364 3.305-2.409.109-.172.216-.344.322-.518 1.184.459 3.22-.273 4.176-.7 1.057-.416 1.848-1.133 2.449-2.012.627.742 1.555 1.225 2.53 1.142a.993.993 0 0 0 .407-.019l-.012.487c-.002.669-.034 1.344.046 2.01.027.208.105.385.276.51.718.461 1.1-.52 1.312-1.051.474-1.088.951-2.176 1.39-3.279.567.239 1.315-.016 1.892-.562.64-.622 1.46-1.015 2.049-1.693 1.916-1.984 2.566-3.877 2.715-5.933a9.32 9.32 0 0 1 .265-.632c1.856-4.992 1.011-10.53.575-15.713zM74.457 143.273c.71-2.271.996-4.654 1.117-7.022 2.51 2.226 5.465 3.89 8.538 5.205.334.144.753.307 1.173.47.347.134.748.34 1.128.274.874-.297.049-1.066-.21-1.524-1.408-2.201-2.464-4.655-2.85-7.25 2.68 2.133 6.203 2.952 8.668 5.37 1.019 1.103 1.938 2.301 2.879 3.471.382.527.743 1.064 1.078 1.622.426.717.689 1.537 1.2 2.197a13.86 13.86 0 0 1-.642 1.623c-.682 1.397-1.593 2.658-2.503 3.913-.914-1.383-2.157-2.684-2.997-3.825-2.425-2.964-4.81-3.943-8.575-4.245-2.826-.151-6.075-.046-8.661 1.245a4.77 4.77 0 0 0 .657-1.524zm-2.556 10.57c.138.028.267.051.384.067 3.616.554 7.747 1.521 9.733 4.912.796 1.401.905 3.181 1.707 4.492a245.694 245.694 0 0 1-4.991 4.803c.14-1.127.205-2.259.124-3.392-.206-3.225-2.194-4.944-4.967-6.212-1.44-.742-2.977-1.501-4.581-1.661.825-.934 1.762-1.944 2.59-3.009zm-3.96 4.582c1.015 1.074 2.31 1.672 3.645 2.541.94.75 2.098 1.384 2.67 2.479.969 2.956-1.341 6.534-.786 9.449l-.524.46c-1.76 1.592-3.507 3.196-5.332 4.709a28.909 28.909 0 0 0-.12-1.271c-.255-4.57-2.94-9.496-7.066-10.026 2.549-2.74 5.035-5.542 7.513-8.341zm-16.56 17.384c.07-.066.143-.13.214-.196.323.163.6.295.744.365 2.219.893 3.543 3.135 4.122 5.37.48 1.741.178 3.213.337 4.667-.818.582-1.636 1.166-2.451 1.753l-.45.324a7.684 7.684 0 0 0-.877-1.811c-.933-1.664-2.065-3.327-3.7-4.374-1.022-.659-2.33-1.218-3.611-1.32a353.58 353.58 0 0 0 5.672-4.778zm-11.24 9.338c.934-.762 1.867-1.524 2.799-2.288.48.178.95.418 1.455.534 4.007 1.167 4.125 5.07 5.978 7.268-1.18.874-2.35 1.76-3.508 2.663a5.555 5.555 0 0 0-.063-.383c-.812-2.811-2.087-5.922-5.504-5.874-1.324-.015-2.65.174-3.965.323.938-.752 1.875-1.499 2.809-2.243zm-18.058 16.146a70.74 70.74 0 0 1 1.989-2.152c.582.043 1.166.08 1.733-.104 1.132-.292 2.379-.366 3.56-.358 2.573.208 5.755.124 7.368 2.506.296.427.637.831 1.026 1.178a9.698 9.698 0 0 0-.688 1.65c-3.698-2.199-12.942-.954-16.343 2.452-.257-2.557-.512-2.946 1.355-5.172zm.756 18.143a90.838 90.838 0 0 1-1.881-10.757c.348-.088.7-.188 1.046-.372 1.63-.842 3.42-1.337 5.257-1.382 1.923-.053 3.879.002 5.752.468 1.047.367 2.174.748 3.288.774-.096 2.104.215 4.321.807 6.548-3.171-.893-6.808.167-9.697 1.553-1.51.865-3.384 1.797-4.572 3.168zm10.622 22.149c-1.36-1.463-2.358-3.241-3.381-4.948-.284-.502-.564-1.005-.84-1.51.259-.181.516-.365.737-.587.69-.699 1.249-1.519 1.956-2.205a15.9 15.9 0 0 1 7.917-4.24c1.183-.057 2.37-.057 3.426-.328.336.507.676.998 1.013 1.472a5.034 5.034 0 0 0-.688.359c-2.271 1.467-4.511 3.033-6.295 5.085-1.355 1.706-3.812 4.441-3.845 6.902zm17.68-3.563c-1.597 2.562-3.513 8.455-2.091 11.902a36.845 36.845 0 0 1-2.06-.621c-3.061-1.086-5.918-2.67-8.744-4.254-.055-.036-.111-.07-.166-.105.38-.447.758-.898 1.178-1.31 1.969-1.977 4.36-3.423 6.763-4.807a52.019 52.019 0 0 1 4.468-2.191 5.592 5.592 0 0 0 1.493-.916c.316.096.64.182.977.261a5.537 5.537 0 0 0-1.818 2.041zm9.885 12.987c.055.211.116.423.182.633-3.108-.162-6.212-.45-9.254-1.046.2-.543.382-1.09.434-1.678.027-.504.068-1.006.13-1.508a16.679 16.679 0 0 1 2.225-6.2c.458-.802 1.117-1.465 1.504-2.308.303-.705.588-1.578.56-2.383 1.508.059 3.008-.053 4.497-.277-.67 1.417-1.06 2.973-1.282 4.514-.393 3.425.118 6.938 1.004 10.253zm5.41.817-.043-.001a5.226 5.226 0 0 0-.133-.482 31.223 31.223 0 0 1-1.4-4.216c-.671-2.729-1.248-5.506-1.155-8.331.02-1.035.129-2.064.31-3.081 1.794-.414 3.569-.94 5.32-1.471-.347.683-.547 1.465-.706 2.2-.786 2.916-.604 5.969-.237 8.937.315 1.775.454 4.31 1.18 6.363-1.04.093-2.092.07-3.135.082zm15.307-6.817c-.024-.08-.051-.159-.077-.236-.78-3.261-1.192-6.607-1.584-9.932-.182-1.687-.136-2.942-.58-4.306a176.701 176.701 0 0 0 4.757-2.044c-.92 3.628-.6 7.687.145 11.249.2.98.45 2.075.878 3.048a252.97 252.97 0 0 0-3.54 2.221zm16.758-9.586c-.47.228-.936.458-1.401.692-.106-.812-.225-1.616-.251-2.373-.194-2.555.084-5.103.44-7.629.2-1.406.538-2.788.803-4.181a3.46 3.46 0 0 0 .043-.443c.778-.404 1.557-.807 2.338-1.207.143 3.212 2.246 9.555 4.693 12.257-2.279.813-4.497 1.812-6.665 2.884zm10.291-3.991c-.369-1.747-1.733-3.349-2.579-4.92a51.497 51.497 0 0 1-2.302-4.538c-.413-.941-.791-1.907-1.341-2.757 1.232-.62 2.468-1.228 3.714-1.822.179-.08.358-.158.538-.236.319 3.55 1.549 10.292 3.861 13.859-.635.118-1.265.257-1.891.414zm13.306-17.369c-1.75 3.738-2.922 7.803-3.122 11.937 0 1.427-.217 2.953.007 4.376-.366-.002-.731 0-1.096.002-.233-1.404-.707-2.754-1.095-4.135-.755-2.958-1.164-5.991-1.537-9.016-.168-1.224-.121-2.478-.398-3.683 1.152-.477 2.332-.875 3.571-1.08 1.579-.126 3.161-.213 4.742-.336-.401.598-.743 1.266-1.072 1.935zm-23.89 149.803a18.527 18.527 0 0 1-1.394-.065c1.487-1.401 3.581-1.916 5.569-2.275a.505.505 0 0 0 .575.038c.247-.002.495.028.742.005a.547.547 0 0 0 .148-.028c.016.789-.488.942-1.354 1.296-1.379.523-2.794 1.034-4.285 1.029zm5.197 7.925c-1.422-.105-2.824-.381-4.201-.747a18.243 18.243 0 0 1 2.433-.647c.116.028.233.051.353.068.88.07 1.718-.185 2.531-.524 1.184-.118 2.336-.018 3.524.172-.1.776-.196 1.018-.966 1.274-1.168.463-2.436.517-3.674.404zm13.166 4.886c.677-.964 1.591-1.701 2.55-2.393 1.305-.927 2.642-1.818 4.08-2.526 1.599 1.995-5.281 4.342-6.63 4.919zm308.448-159.561c-.855.051-1.709.051-2.565.026-.42.007-.869-.096-1.268.077a.818.818 0 0 0-.482.847c.036.333.263.514.506.709.272.213.521.448.763.692 1.613 1.677 2.23 4.018 2.828 6.206-.559 1.576-.871 3.242-1.241 4.872-.563-1.155-1.097-2.323-1.636-3.49-.21-.412-.345-.875-.655-1.226-.286-.297-.819-.18-.992.184-.138.254-.098.586-.093.862.087 3.234-.007 6.897-2.299 9.423-1.702 1.724-3.838 2.934-5.783 4.36.124-.436.265-.865.452-1.278.515-1.041-1.031-1.688-1.419-.598a37.02 37.02 0 0 1-4.094 8.006c-.091-.531-.037-1.074-.09-1.602l-.009.003c-.1-.522-.894-.628-1.149-.148-.232.533-.214 1.142-.51 1.659-.841 1.636-2.104 3.027-3.453 4.262-.724.603-1.512 1.116-2.273 1.667-.499-.777-1.059-1.523-1.593-2.281l.24-.166c.974-.637 2.009-1.151 3.018-1.741.973-.518 1.925-1.254 2.377-2.295-1.883 1.068-3.802 2.354-5.835 3.229a3.41 3.41 0 0 1-.366.148 15.815 15.815 0 0 1-.6-.982c.886-.9 1.697-1.892 2.647-2.733 1.403-1.387 2.998-2.588 4.439-3.944.499-.322 1-.636 1.507-.938 1.584-1.068 3.302-1.914 4.839-3.046 2.612-1.99 5.022-4.425 6.211-7.545.782-1.731.862-3.626 1.088-5.482.33-2.117.503-4.249.679-6.381l.02-.059c.516-1.529 1.054-3.12 1.779-4.58.212-.435.447-.858.683-1.28 1.215 1.694 2.855 3.142 4.329 4.563zm-5.265-36.552c1.362-1.709 2.731-3.506 3.462-5.589 1.62-4.61-1.125-9.338-.89-14.007 1.004.567 1.991 1.753 2.481 2.499 1.941 3.283 3.826 7.806 2.883 11.639-.854 5.248-2.56 6.292-6.432 9.556-.964.794-2.024 1.45-3.076 2.116-.199-.372-.397-.743-.593-1.117 1.825.061 3.292-1.482 4.38-2.824.845-.914 1.669-1.88 1.956-3.124.066-.259.173-.542.177-.799-.616.502-1.277.961-1.873 1.491-1.532 1.691-3.935 2.547-4.969 4.629-.114-.217-.227-.435-.339-.652-.16-.297-.319-.595-.485-.889 1.309-.316 2.491-1.938 3.318-2.929zm-32.313-20.381.043.011c.11.029.217.056.326.081l.028.007c1.634.41 3.265.83 4.867 1.358 2.488.88 4.893 1.988 7.264 3.144.728 1.28 1.946 2.172 3.034 3.128.79.707 1.579 1.415 2.348 2.145.499.573 1.206.834 1.883 1.124.141.085.285.142.43.172l.001.001c1.033 1.043 2.027 2.353 2.718 3.68.915 1.515 1.68 3.104 2.369 4.733.585 1.397 1.271 2.773 2.348 3.82.606 1.848 1.311 3.683 1.686 5.598.432 1.968.364 3.983.51 5.98.229 3.336.852 6.621 1.258 9.935.141 1.198.222 2.408.427 3.597.202 1.16.649 2.202 1.245 3.164-.654 1.06-1.222 2.351-1.714 3.581.068-.875.072-1.749-.062-2.619-1.727 1.81-1.629 4.487-2.337 6.755-.949 3.954-2.925 7.537-5.136 10.917-1.436 2.215-2.481 4.697-4.211 6.717-1.439 1.584-3.113 2.923-4.716 4.336-.654.562-1.35 1.097-1.924 1.745-.548.619-.946 1.366-1.357 2.08l1.341-.944-.349.293c-1.15 1.021-2.382 2.01-3.219 3.289-.415-.955-.654-1.978-.879-2.993-.119-.662-.297-1.293-.264-1.977.036-.2.196-.339.189-.551a.644.644 0 0 0-.188-.441c-.652-.548-1.503-.81-2.271-1.153-.652-.262-1.308-.522-1.98-.727a17.314 17.314 0 0 0-2.036-.472c-.467-.576-.985-1.114-1.495-1.653-.37-.458-1.24-1.074-1.621-.317-.212.506.338.83.612 1.173a14.72 14.72 0 0 1 1.804 2.667 29.873 29.873 0 0 1 2.248 5.971c-1.395-1.326-3.354-2.522-4.731-2.172-1.206.344-2.251 1.106-3.278 1.804-1.742 1.197-3.097 2.821-4.468 4.405-3.11-1.746-6.064-3.902-8.855-6.173-1.369-1.254-2.499.335-3.474 1.219-.424.429-.858.858-1.27 1.304.223-1.046.671-2.117 1.036-3.099a39.47 39.47 0 0 1 1-2.328c.664-1.357 1.558-2.595 2.171-3.973.309-.747-.002-1.511-.397-2.156-.245-.492-.415-1.018-.689-1.495-.163-.333-.66-.418-.746-.034a.21.21 0 0 0-.098-.049c-1.163-.315-2.348-.519-3.522-.784-.236-.209-.574-.063-.833.037-1.366.618-2.827 1.043-4.152 1.744a.541.541 0 0 0-.364-.705c-.563-.096-1.089.287-1.587.502-1.706.845-3.4 1.748-4.92 2.902a19.336 19.336 0 0 0-2.125 1.91c-3.563-2.452-7.169-4.852-10.942-6.968-.771-.41-1.63-.591-2.481-.743.348.505.902.879 1.393 1.254 1.973 1.219 4.027 2.313 5.957 3.61a158.215 158.215 0 0 1 5.286 3.696c-.634.736-1.193 1.536-1.751 2.329-.943 1.295-1.801 2.647-2.512 4.077-1.16-.663-2.325-1.319-3.44-2.06l-.141-.096c-1.326-2.085-3.703-3.149-5.39-4.898-.202-.259-.398-.521-.596-.783.523.21 1.054.403 1.593.573 1.133.334 2.257.682 3.344 1.146.551.211 1.199.56 1.804.328.448-.174.65-.727.465-1.158-.172-.41-.63-.595-1.001-.784-1.87-.925-3.608-2.07-5.16-3.465-1.157-1.003-2.36-1.955-3.441-3.039-1.337-1.36-2.518-2.869-3.638-4.41-2.253-3.237-2.438-5.955-2.783-9.749-.345-4.653.294-9.297.922-13.898.44-1.433.776-2.889 1.034-4.365h-.002c.067-.273-.15-.515-.435-.491-.271.021-.353.305-.428.517-.2.588-.369 1.187-.547 1.782-2.203 4.898-4.662 9.708-6.395 14.804-.411 1.213-.974 2.884-1.345 4.599-.792-.953-1.53-1.952-2.133-3.036-.674-1.13-1.133-2.387-1.798-3.534-.231-1.796-.243-3.556-.157-5.419.177-2.869 1.325-5.578 2.508-8.168.203-.343-.199-.768-.552-.562-.396.295-.659.746-.999 1.106-.832.997-1.714 1.957-2.501 2.992.316-4.162.886-8.263 2.017-12.285.364-.62.712-1.249 1.035-1.891 1.029-2.215 2.176-4.402 2.905-6.741 2.569-2.361 5.628-4.191 8.2-6.556 3.545-3.355 6.662-7.127 10.05-10.635 1.757-1.876 3.497-3.548 5.579-5.068 3.522-1.035 7.005-2.212 10.607-2.947 3.772-.793 7.622-1.155 11.389-1.955 3.858-1.28 7.253-3.922 11.373-4.435-.563.79-1.152 1.56-1.77 2.308-.25.342-.608.614-.789 1.001-.238.612.409 1.172.983.864a12.218 12.218 0 0 1 1.598-.747c2.895-.887 5.988-.756 8.982-.713-.931.467-1.878.907-2.781 1.422-.389.234-.898.506-1.015.979-.077.31.043.666.335.823.476.234 1.025.198 1.539.291 1.273.183 2.525.499 3.773.801l.334.083zm-4.974 96.567c-1.234.789-2.483 1.695-3.967 1.826.228-.602.428-1.215.542-1.852.2-1.049.276-2.107.325-3.173-.008-.25.039-.542.002-.801.122-.118.235-.242.343-.354.299-.307.593-.62.896-.923a13.583 13.583 0 0 1 2.006-1.653c1.317-.84 2.748-1.511 4.214-2.046.309-.098.621.127.905.232.76.39 1.487.852 2.109 1.439a50.81 50.81 0 0 1-1.103 1.44c-.558-.198-1.259-.231-1.772-.244-.769.045-1.823-.141-2.313.596-.68 1.311-1.162 2.716-1.712 4.085-.132.355-.286.698-.411 1.056a.482.482 0 0 0-.064.372zm-9.337-1.394c-.498-.916-.978-1.845-1.514-2.74-.585-.793-1.378-2.729-2.603-2.325-.545.279-.988.734-1.454 1.127-.298.271-.72.547-1.003.879a1.063 1.063 0 0 0-.115.248l-.179-.16c-.702-.729-1.313-1.635-1.609-2.624.997-.853 2.215-1.505 3.409-2.042 1.545.876 3.162 1.625 4.698 2.518 1.567.921 3.164 1.781 4.766 2.638.201.15.383.321.629.383.237 1.443.342 2.929-.16 4.33a8.634 8.634 0 0 1-.23.576c-.22-.092-.451-.165-.672-.235a71.297 71.297 0 0 0-3.31-1.165c-.098-.034-.197-.068-.294-.104.09-.4-.064-.896-.359-1.304zm-26.178 3.495a23.622 23.622 0 0 1-2.937-1.407c-1.204-.655-2.208-1.572-3.383-2.275-.378-.252-.774-.474-1.165-.702-.008-.001-.026-.022-.03-.011.09.332.252.654.443.939.706 1.082 1.856 1.748 2.918 2.435 1.714 1.039 3.522 1.891 5.387 2.608.684 1.13 1.165 2.383 1.506 3.655.176 1.553.477 3.089.858 4.606.936 3.499 1.818 7.016 2.057 10.645.006.15.012.299.02.449l-.052-.108c-.663-1.391-1.397-2.724-2.074-4.114-.36-.81-.651-1.273-1.091-1.554a8.785 8.785 0 0 0-.51-1.458c-1.36-3.547-2.713-7.104-4.509-10.459a5.63 5.63 0 0 0-2.397-2.503 14.419 14.419 0 0 1-.536-.67c-1.275-1.952-3-3.602-4.936-4.882-1.488-1.785-2.546-3.809-3.478-5.996-.428-1.089-.865-2.115-1-3.321-.087-.925-1.347-1.188-1.814-.391-.348.618-.278 1.381-.379 2.065-.083.891-.16 1.781-.188 2.675-1.48-1.862-2.873-3.841-3.806-6.04-.162-.581-1.002-.711-1.259-.12-.137.301-.109.679-.119 1.005-.019 1-.029 2.002-.002 3.002-.962-.976-1.855-2.015-2.631-3.146-.536-.902-1.34-1.681-1.549-2.738a22.992 22.992 0 0 1-.353-5.696c.048-.364.057-.736.156-1.09a.877.877 0 0 0-.461-1.135.888.888 0 0 0-1.13.434c-.829 1.198-1.82 2.272-2.684 3.442a57.07 57.07 0 0 0-1.2-7.243c-.18-.775-.412-1.539-.64-2.301-.125-.32-.156-.717-.417-.961-.456-.358-1.078.217-.769.697.235.885.341 1.792.427 2.703.062.85.012 1.694-.072 2.537-1.808-1.079-3.594-2.2-5.229-3.534-1.16-.974-2.035-2.133-2.807-3.531-.13-.572-.043-1.175-.03-1.756a26.497 26.497 0 0 1 1.176-5.847c.146-.552.518-1.105.388-1.689-.087-.297-.378-.445-.672-.382-.56.204-.88.844-1.317 1.23a172.818 172.818 0 0 0-3.306 3.653c.123-1.151.066-2.338.49-3.434.519-1.432 1.296-2.748 2.114-4.026.577-1.092 2.887-3.408 1.082-4.299-.34-.156-.714-.088-1.075-.117-1.04-.128-2.049-.455-3.018-.848 3.136-1.198 5.883-3.354 8.165-5.787 1.114-1.327 2.107-2.758 3.089-4.184.541-.833 1.09-1.66 1.628-2.497-.135.555-.263 1.111-.389 1.667-.755 3.34-1.738 6.658-2.048 10.08-.005.536-.125 1.162.065 1.685.202.488.919.534 1.175.072.543-1.635 1.691-3.01 2.696-4.39-1.096 2.611-1.627 5.383-1.692 8.22-.044.818-.12 1.67-.195 2.499-.098.617-.119 1.233.253 1.769 1.304 2.477 2.964 4.726 4.747 6.872-.201 1.594-.135 3.113.477 4.218a29.193 29.193 0 0 0 7.175 7.165c1.571 1.026 3.225 1.922 4.887 2.79.186.098.371.196.558.292.729 1.087 1.473 2.167 2.327 3.157.925 1.017 2.142 1.707 3.277 2.465.038.025.075.052.113.076 1.395 1.224 2.844 2.385 4.462 3.307.719.415 1.438.833 2.152 1.257-.113.255-.221.513-.324.773-.453.627-.607 1.421-.281 2.142.53 1.211 1.061 2.429 1.662 3.607a49.888 49.888 0 0 0 2.007 3.279.95.95 0 0 0 .017.47zm-2.111 13.963-.717-.202c-1.6-.476-3.259-.806-4.779-1.512-1.302-.685-2.331-1.75-3.382-2.759a21.616 21.616 0 0 1-.571-.562c1.897.424 3.833.725 5.661 1.389.823.349 1.681.532 2.554.664.394 1.032.766 2.038 1.234 2.982zm-27.214-109.411c.257 1.433.782 2.764 1.477 4.008-.47-.385-.956-.75-1.421-1.117a3.03 3.03 0 0 1-.447-.492c-.111.322-.092.687-.072 1.028.062 1.739.994 3.6 2.811 4.014.512.147 1.043.097 1.556-.018a42.43 42.43 0 0 0 1.905 2.077c.641.625 1.261 1.307 1.962 1.873a87.779 87.779 0 0 1-2.987 2.637c-.921-.77-2.018-1.367-2.633-2.425.858.488 1.927-.363 1.645-1.315-.184-.806-1.071-1.042-1.733-1.339-.935-.593-1.981-1.082-2.751-1.89-.051-.058-.102-.115-.15-.176-.02.126.006.282.019.416.132 1.422 1.296 2.367 2.102 3.438-.644.938.583 2.303 1.177 3.005.405.443.955.761 1.548.932a65.41 65.41 0 0 1-1.656 1.316c-.64-.751-1.402-1.415-2.03-2.172a18.664 18.664 0 0 1-2.672-3.986c-1.33-3.021-2.248-6.854-1.628-10.149 1.785-4.093 4.731-7.749 8.387-10.349-.832 1.514-1.576 3.077-2.348 4.622-.446.881-.9 1.758-1.357 2.632-.619 1.024-.974 2.235-.704 3.43zm67.638-9.529c-2.453.365-4.943.425-7.388.83.944-.868 2.356-1.585 2.609-2.949.033-.202.03-.406-.005-.602 1.429.391 2.846.826 4.245 1.313.788.371 1.574.751 2.361 1.128-.605.106-1.211.211-1.822.28zm-107.734-19.357c2.746-2.151 5.498-4.286 8.297-6.338 4.256-1.718 8.731-2.874 13.275-3.765-.5.314-.996.635-1.492.955-4.422 2.705-8.773 5.542-12.73 8.905-2.137 1.783-4.215 3.872-5.024 6.609-.636 2.553-.687 5.255-.476 7.867.14 1.269.379 2.531.582 3.791.535 3.777 1.486 7.463 2.337 11.174.282 1.42.427 2.861.452 4.309-.004.822.041 1.66.228 2.464a4.421 4.421 0 0 1-.005.115c-.167 1.231-.128 2.469-.025 3.702-.018.026-.044.096.001.111.027.007.031.006.059-.002.045-.012.196-.211.206-.225.697-.98.997-2.155 1.1-3.338.169-1.29.23-2.596.305-3.893.273-3.874.153-7.793.886-11.62.459-2.101 1.077-4.201 2.181-6.061 2.028-3.178 4.66-5.935 7.253-8.655 2.228-2.198 4.479-4.391 7.028-6.222 3.732-2.708 7.619-5.198 11.505-7.682 2.935-1.932 5.777-4.103 9.061-5.417 3.759-.315 7.524-.501 11.286-.223 2.65.349 4.333 2.97 6.415 4.454.601.548 1.204 1.094 1.808 1.639a119.473 119.473 0 0 1-3.053-.035c-4.047-.145-8.078-.654-12.122-.882-1.872-.095-3.752-.116-5.623.035-1.607.093-3.22.436-4.564 1.366-3.651 2.461-6.807 5.572-9.741 8.839-3.464 3.625-6.379 7.727-8.938 12.031-1.885 3.115-3.838 6.189-5.613 9.37-.607 1.089-1.26 2.14-1.726 3.295-.001.002-.001.004-.003.005a6.416 6.416 0 0 0-.392.865.243.243 0 0 1-.054.031.309.309 0 0 0 .043 0 5.352 5.352 0 0 0-.254 1.021c2.182-1.016 3.441-3.196 5.113-4.839 2.19-2.317 4.509-4.561 7.027-6.537 4.083-3.136 8.193-6.246 12.417-9.19 4.417-2.985 9.163-5.769 14.5-6.622 6.503-1.114 13.253-1.663 19.715-.017 1.907.474 3.734 1.233 5.624 1.762.243.191.487.382.73.57.099 1.055 1.537.71 1.291-.219.746-.111 1.425-.61 2.125-.901.748-.3 1.508-.557 2.283-.778 2.948-.652 6.009-1.077 9.027-.77 1.161.214 2.337.515 3.5.461.429.366.881.744 1.366 1.133a40.533 40.533 0 0 1 1.885 1.535 16.035 16.035 0 0 0-.564-.142c-1.897-.455-3.872-.81-5.825-.592-3.12.288-5.96 1.775-8.496 3.533-3.783-.7-7.533-1.574-11.318-2.262-2.444-.5-4.867-1.161-7.363-1.345-.805-.063-1.624-.133-2.408.114-.552.175-1.085.418-1.618.641-2.312.948-4.596 1.96-6.821 3.098-2.009 1.126-4.364 2.058-5.854 3.813 1.253-.266 2.488-.613 3.644-1.184 3.171-1.295 6.538-2.71 9.972-3.257.563-.075 1.207-.199 1.799-.102 2.513.314 4.947 1.011 7.409 1.576 2.492.538 5 1.002 7.469 1.643 1.233.304 2.466.605 3.699.904 1.548.478 2.611.278 3.852-.768.401-.276.825-.518 1.26-.734.71-.02 1.415-.094 2.122-.137 3.638-.212 7.331-.276 10.938.311 1.18.448 2.319 1.036 3.538 1.368.754.403 1.442.933 2.179 1.365l.001.001c.472.541.942 1.085 1.412 1.627-3.34-1.401-6.865-2.387-10.468-2.616-2.592-.22-4.907 1.032-7.171 2.112-.224.082-.446.202-.691.143-1.187-.157-2.375-.317-3.564-.46-2.645-.391-5.266-.937-7.9-1.398-2.508-.468-5.011-.921-7.488-1.535-1.51-.368-3.047-1.012-4.618-.627-2.475.478-4.807 1.518-7.053 2.634-1.944 1.074-4.258 1.899-5.427 3.914-.055.077-.161.238-.136.31 1.196-.15 2.416-.292 3.506-.859 3.286-1.307 6.782-2.137 10.328-2.165 5.885.572 11.518 2.433 17.24 3.815a21.26 21.26 0 0 0 5.349.571c1.154-.07 2.13-.736 3.087-1.321.728-.501 1.474-.807 2.371-.742 1.097.021 2.185.13 3.266.298l-.338.15c-2.242 1.029-4.4 2.24-6.689 3.165-.992.366-1.984.743-2.985 1.087-.591-.126-1.179-.256-1.773-.363-2.029-.349-4.017-.893-6.004-1.424-2.999-.86-6.095-1.306-9.202-1.535-1.673-.116-3.389-.2-5.034.191-2.194.486-3.764 2.229-5.558 3.457a12.23 12.23 0 0 0-2.859 2.409h-.003c-.005-.007-.01.006-.004.007 1.721-.373 3.309-1.209 5.007-1.688 3.224-.927 6.643-.167 9.932.201.842.106 1.701.215 2.57.316-2.964.937-5.815 2.199-8.648 3.471-.356.159-.714.317-1.072.472-.587.168-1.139.433-1.677.724-.765.328-1.53.654-2.293.988a2.406 2.406 0 0 0-.347.054c-2.442-.168-4.804-1.534-6.383-3.378-2.227-2.533-4.174-5.383-5.453-8.514-.698-4.152-4.318-1.257-6.288.162-2.777 2.016-5.192 4.492-7.381 7.123-1.244 1.717-2.869 3.212-3.802 5.127-.786 2.313-.408 4.872-.011 7.231.751 3.998 2.735 7.722 5.505 10.687.473.478.914 1.013 1.395 1.497-.425.341-.824.709-1.042 1.214-.16.345-.151.742-.164 1.119-.097.782-.254 1.551-.396 2.326-.365 2.119-.827 4.239-1.868 6.142-1.613 2.96-3.607 5.758-6.303 7.821-.116-1.955-1.713-3.246-2.702-4.836-1.836-2.695-2.91-5.808-4.092-8.825-1.016-2.919-2.106-5.859-2.508-8.936-.355-4.306.428-8.596 1.648-12.713.478-1.661 1.072-3.316.861-5.075-.822.927-1.396 2.128-1.741 3.342a187.308 187.308 0 0 0-1.759 5.522 77.963 77.963 0 0 1-1.1 2.75c-1.334 3.172-2.515 6.406-3.362 9.745-.275 1.102-.682 2.195-.69 3.343.002 1.153.169 2.316.388 3.447.608 3.402 2.053 6.575 3.368 9.75.414.975.878 1.931 1.377 2.866.549 1.03 1.132 2.04 1.828 2.979.245.317.538.59.86.828-.546.221-1.097.43-1.655.627-.432.147-.892.269-1.266.541-.754.51-.966 1.616-.396 2.342.402.52 1.098.702 1.691.916 1.625.596 3.311.984 5.008 1.306-1.54 2.149-2.962 4.401-4.166 6.752-.586 1.463-.255 3.059.128 4.525.196.636.22 1.388.752 1.857.89.782 1.821-.252 2.31-.983a191.738 191.738 0 0 0 2.618-3.466c-.561 1.831-.909 3.72-1.484 5.546-.295.647-.554 1.34-.411 2.063.809 2.813 3.307 4.732 5.672 6.25 1.476.856 2.946 1.79 4.556 2.368a1.957 1.957 0 0 0-.009.11 45.288 45.288 0 0 0 .023 5.142c.076.63-.017 1.798.557 2.326.516.516 1.399.595 1.969.128.284-.21.452-.527.557-.857.739-1.328 1.595-2.591 2.264-3.958.046 1.359.151 2.72.098 4.081-.042 1.106.425 2.149.952 3.096 1.147 2.01 2.892 3.568 4.659 5.025.625.519 1.35 1.218 2.234.928.479-.157.886-.549.939-1.073.073-.433-.125-.817-.284-1.205-.232-.693-.296-1.426-.41-2.144a73.869 73.869 0 0 0 2.355 4.168c.327.548.696 1.071 1.034 1.612.174.29.354.598.667.757.596.346 1.399.146 1.745-.458.137-.248.2-.513.224-.785.598 1.146 1.149 2.314 1.706 3.484.531 1.138.979 2.316 1.548 3.435.6 1.179 1.36 2.265 2.116 3.348.273.425.563.835.868 1.234-2.731-.454-5.564-.534-8.041-1.746-1.181-1.768-2.272-3.602-3.56-5.292-1.351-1.779-2.789-3.49-4.359-5.08-3.02-3.215-6.339-6.22-10.221-8.343-.049-.156-.088-.314-.137-.471-.286-.83-.681-1.658-1.35-2.249-.839-.765-1.695-1.516-2.472-2.344-3.089-3.679-6.192-7.422-8.268-11.789-2.362-4.883-4.746-9.797-6.032-15.095-1.356-5.08-1.866-10.316-2.517-15.515-.203-1.329-.929-2.465-1.707-3.531-1.622-2.349-3.05-4.821-4.519-7.266-1.309-2.138-2.683-4.239-3.832-6.472-1.006-2.041-1.756-4.198-2.295-6.408-.468-1.76-.619-3.584-1.347-5.279-.078-.185-.138-.387-.241-.551a6.443 6.443 0 0 0-.154 1.214c-.048 1.629.355 3.234.631 4.83.523 2.52 1.241 4.997 2.299 7.347.394.889.818 1.763 1.254 2.632.499 1.228.99 2.46 1.452 3.703 1.492 4.262 1.952 8.773 2.866 13.176.439 2.332.771 4.682 1.15 7.024.585 3.689 1.364 6.982 1.964 10.748.513 3.04.989 6.089 1.922 9.07 1.031 2.966 2.408 5.804 4.035 8.492a13.666 13.666 0 0 1-.198-.133c-1.066-.721-2.127-1.452-3.193-2.174.03-1.176-.27-2.36-.556-3.638-.865-3.69-1.927-7.341-3.486-10.803a2670.11 2670.11 0 0 1-6.264-14.08c-1.586-3.562-3.411-7.014-4.897-10.619a75.411 75.411 0 0 1-1.3-3.532c-.772-2.272-1.641-4.518-2.078-6.885-1.025-6.036-.427-12.171.059-18.238.309-3.239.676-6.472.969-9.712.143-1.239.284-2.534-.201-3.722-.088-.198-.141-.435-.298-.587-.013-.005-.023-.008-.038-.004-.002.001-.002.005 0 .006-.043.598-.533 1.291-.655 1.944-.147.556-.199 1.13-.269 1.7a287.083 287.083 0 0 1-1.045 7.897c-.952 3.657-2.337 7.193-3.473 10.796-1.384 3.987-2.847 7.856-3.221 12.194-.304 2.102.019 4.208.682 6.212.997 3.206 2.713 6.123 4.053 9.189 2.302 5.313 4.263 10.83 5.364 16.522-1.922-3.711-3.711-7.548-6.319-10.84-1.292-1.699-2.82-3.2-4.163-4.852-.891-1.15-1.658-2.388-2.384-3.648-.911-1.556-1.721-3.171-2.513-4.788-.297-3.044-.051-6.137.396-9.157.68-3.812 1.449-7.622 2.535-11.341 1.848-5.501 3.561-11.066 5.406-16.574 2.277-6.587 5.674-12.751 8.515-19.107.317-.671.633-1.344.94-2.023zm-69.823 28.909-.01.051a1.33 1.33 0 0 0-.062-.041l.072-.01zm-79.712 62.179c.654-2.198 1.337-4.393 2.167-6.533 1.099-2.949 3.369-5.316 4.362-8.288 3.107-.501 6.207-1.05 9.329-1.441-.22.307-.44.614-.663.915a125.641 125.641 0 0 0-5.722 9.364c-1.085 1.057-2.167 2.115-3.258 3.166-2.547 2.487-5.004 5.001-7.44 7.527.563-1.503.753-3.174 1.225-4.71zm-20.513 33.289c1.328-5.118 5.257-8.766 8.698-12.546a648.244 648.244 0 0 0 4.139-4.487l-.021.071a43.64 43.64 0 0 1-3.751 8.301c-2.397 4.574-4.941 9.067-7.455 13.578-2.082 3.791-3.978 7.693-5.456 11.76l-.34.637c1.315-5.79 2.754-11.555 4.186-17.314zm-65.247 120.24c2.376-1.228 4.88-2.393 7.502-2.973-.73 2.549-5.263 2.915-7.502 2.973zm3.392 11.933c2.193-1.419 4.746-2.158 7.014-3.449.063.588.283 1.287-.125 1.795-.932.972-2.242 1.604-3.576 1.765-1.105.113-2.212.013-3.313-.111zm12.088 7.253.179-.148c1.99-1.514 4.193-2.712 6.433-3.816 1.697 2.265-5.201 3.72-6.612 3.964zm41.25-46.241c-.342-1.004-1.267-1.823-2.197-2.259-.636-.286-1.328-.456-1.988-.674-1.74-.605-3.438-1.389-4.942-2.459-2.865-1.983-5.152-4.626-7.313-7.329-.644-.951-1.631-1.522-2.645-2.009-.036-.025-.09-.054-.123-.089-.021.078.013.191.023.282.082 1.061.315 2.129.847 3.064.924 1.929 1.719 3.922 2.82 5.762 2.555 4.28 7.41 7.117 12.198 8.158.26.023.56.018.875-.019-1.445 1.477-2.625 2.748-3.121 3.223-2.092 2.475-4.426 4.756-6.395 7.33-2.607 3.909-3.49 8.632-4.786 13.075-1.711 5.454-2.111 9.203-7.193 12.637-2.355 1.642-4.528 3.539-7.028 4.967-.58.304-1.097.771-1.66 1.124.159-.27.276-.556.342-.858.244-1.07-.233-2.129-1.031-2.842-.654-.673-1.084-.585-1.814-.112-.523.367-1.07.707-1.627 1.032l.215-.216c1.46-1.241 2.872-2.539 4.107-4.008 1.996-2.49 3.448-5.375 5.528-7.807 1.408-1.659 2.887-3.28 4.62-4.606.396-.156.549-.669.324-1.027-.77-.935-1.643.472-2.331.876-4.531 3.79-8.53 8.16-12.933 12.092-1.47 1.283-2.55 3.024-4.218 4.066-2.027 1.183-4.435 1.03-6.626.433-.438-.078-.811-.264-1.157-.498.368-.058.73-.142 1.087-.255 2.119-.681 4.756-2.549 3.803-5.086-.124-.409-.275-.81-.411-1.215-.074-.221-.108-.485-.267-.664-.356-.432-1.088-.346-1.327.156-.541.565-1.384.802-2.087 1.134-1.025.39-2.073.724-3.097 1.119a1.972 1.972 0 0 0-.107-.55c.054-.552-.048-1.08-.222-1.591a18.357 18.357 0 0 0 7.466-1.832c1.533-.75 3.143-1.464 4.38-2.671 1.75-1.728 2.208-3.937 3.409-6.075 1.096-1.617 2.499-3.01 4.043-4.199 1.5-1.028 2.979-2.176 4.698-2.813 1.118.252 1.22-1.619-.646-1.147a8.01 8.01 0 0 0-1.94.669 66.11 66.11 0 0 0-6.834 3.781c-.605.381-1.214.753-1.764 1.21-1.793 1.561-2.19 4.019-2.967 6.144-.381.827-1.131 1.391-1.846 1.917-.993.631-1.982 1.274-3.065 1.744-1.754.651-3.934.871-5.525-.287-.516-.372-.778-.93-1.057-1.479 1.44-.243 2.832-.759 4.03-1.586 1.283-.83 1.942-2.307 1.884-3.811.449-.706-.413-1.527-1.127-1.456-1.057.127-2.028.618-3.058.865-.958.254-1.92.512-2.865.819.034-.362.06-.728.172-1.068.657-1.771 1.345-3.532 2.002-5.303 1.743-1.183 3.794-1.885 5.39-3.285.747-.589 1.085-1.49 1.658-2.219.919-1.033 1.76-2.136 2.716-3.134 1.786-1.607 4.349-1.84 6.268-3.268 3.926-2.294 5.873-6.462 8.117-10.216.374-.57.738-1.144 1.092-1.723.43.893 1.113 1.673 1.877 2.507.653.924 1.287 1.859 1.965 2.765 2.168 3.059 3.716 6.495 5.223 9.914.382 1.035 1.022 2.223 1.853 3.005.165-.866.123-1.717-.031-2.557.059-.7.116-1.412-.023-2.108-.386-2.142-.927-4.254-1.425-6.373-.758-3.2-1.453-6.474-2.974-9.416-.654-1.434-2.167-2.587-3.773-2.516 5.146-9.93 8.304-20.828 12.43-31.179a211.801 211.801 0 0 1 5.393-4.762l.14-.128c-1.51 4.338-3.028 8.676-4.234 13.112-1.406 4.986-2.416 10.068-3.536 15.123-.166.637-.508 1.267-.35 1.941.248.822.92 1.447 1.452 2.098.722.801 1.475 1.572 2.193 2.376 1.176 1.344 2.303 2.753 3.747 3.826-.32.279-.51.668-.551 1.126-.077 1.736 1.875 2.435 3.213 2.957 2.387.854 4.848 1.572 7.358 1.94-.864.694-1.798 1.537-2.72 2.415zm4.743-5.36c-.138-2.116-1.586-4.026-2.054-6.249-1.219-5.338-1.841-11.189.202-16.401 1.151-2.28 2.72-4.321 4.385-6.269-2.638 4.37-3.641 7.831-3.334 13.998.081 4.521 1.519 8.83 2.946 13.075.236.717.521 1.448.888 2.131a29.628 29.628 0 0 1-3.033-.285zm26.21-1.957a69.6 69.6 0 0 1-.443.091c-.707-.439-1.483-.791-2.167-1.329-1.799-1.453-2.979-3.546-3.924-5.625-.719-1.623-1.062-3.334-1.164-5.071.054.155.113.309.174.463 1.374 3.528 4.207 6.295 7.508 8.067 1.462.848 3.015 1.626 4.629 2.217-1.526.44-3.064.837-4.613 1.187zm23.116-11.557a9.79 9.79 0 0 0-.255.622 67.567 67.567 0 0 1-2.256 2.561c-.708.699-1.384 1.446-2.222 1.992-2.28 1.274-4.762 2.131-7.206 3.036-1.278-.946-2.965-.97-4.475-1.354-2.268-.674-4.353-1.888-6.264-3.263-6.312-4.749-4.292-14.685-3.431-21.494 1.224-8.267 2.853-16.465 4.269-24.699.265-1.922.637-3.842.761-5.777.017-.684-.125-1.353-.175-2.031-.694 1-1 2.197-1.243 3.411-.322.812-.545 1.665-.776 2.505-.95 3.789-1.858 7.587-2.916 11.348-1.31 4.391-2.955 8.675-4.243 13.074-1.531 4.957-3.399 9.82-4.456 14.91-.838 3.439-.926 7.139.381 10.473.988 2.663 2.54 5.438 4.685 7.451-1.936.293-3.88.534-5.829.718.062-.654.036-1.311-.191-1.954-.461-1.435-1.598-2.515-2.114-3.931-1.05-3.106-1.578-6.58-.515-9.751.807-3.256 3.13-7.195 1.947-10.498-1.509 1.954-1.821 4.458-3.026 6.626-.915 2.059-2.635 3.676-3.356 5.821-1.042 3.714-.274 11.141 3.239 13.98-.797.04-1.593.07-2.39.089l-.458-.001c-.073-.784-.381-1.525-.571-2.288-.389-1.723-.724-3.457-1.158-5.17a41.61 41.61 0 0 1-1.266-11.244c-.095-3.245.999-6.311 2.715-9.03 4.66-7.814 11.108-14.534 15.006-22.796 1.636-4.388 1.677-9.197 2.438-13.786.325-2.539.592-5.084.948-7.619.239-2.479 1.08-5.017.349-7.479-.017-.066-.027-.151-.043-.22-1.41 1.596-1.303 3.874-1.759 5.845-1.311 6.312-2.118 12.863-4.426 18.908-.639 1.116-1.195 2.301-1.977 3.356-2.723 4.079-6.016 7.722-9.382 11.274-2.782 3.096-5.792 5.971-8.708 8.934-2.35 2.568-4.812 5.203-5.834 8.614-1.756 5.849-1.305 12.231.373 18.05.337.876.666 1.848 1.075 2.775-.757-.291-1.507-.598-2.256-.905a.902.902 0 0 0-.23-.718.908.908 0 0 0-.397-.25l.004-.004c-.576-.173-1.19-.169-1.785-.158-.344-.145-.657-.352-.96-.571-2.31-1.906-3.702-4.674-4.982-7.328.412-.913.624-1.9.872-2.87a7.3 7.3 0 0 0 1.463-2.887c.927-2.781 2.079-5.483 3.326-8.133 1.507-3.21 3.423-6.234 5.904-8.783 4.546-4.367 10.145-7.389 14.753-11.677 2.749-2.733 3.717-6.603 5.186-10.075.734-2.167 2.342-4.535 1.432-6.853-.607.719-1.395 1.346-1.868 2.192-.415.742-.778 1.513-1.192 2.258-1.984 3.597-3.861 7.5-7.328 9.906-4.297 3.069-8.714 5.735-12.518 8.995.132-.363.243-.729.336-1.098a149.552 149.552 0 0 0 3.832-6.222c2.249-3.551 4.994-6.788 7.898-9.82 3.2-3.261 6.569-6.405 9.297-10.087 1.197-1.65 1.65-3.675 2.153-5.614.35-1.324.705-2.647 1.062-3.969a495.581 495.581 0 0 0 3.346-12.949c.368-1.145.443-2.315.738-3.484-.394.532-.81 1.098-1.137 1.693-1.409 3.031-2.629 6.151-3.871 9.252-.82 2.093-1.637 4.187-2.481 6.27a22.906 22.906 0 0 1-2.782 3.553c-2.091 1.814-4.595 3.127-6.467 5.201-2.614 2.757-5.068 5.704-7.242 8.838l.248-.893c.864-2.973 1.805-5.929 2.992-8.791 1.806-3.1 3.722-6.138 5.804-9.06 4.598-7.136 10.793-13.39 14.019-21.326 1.564-4.555 2.366-9.67 3.662-14.427.36-1.117.765-2.272.898-3.436.553-.637 1.103-1.274 1.653-1.912.803-.919 1.611-1.833 2.423-2.745-1.577 3.46-2.936 7.014-4.012 10.659-2.592 8.701-2.342 14.735 1.077 23.155 1.268 3.098 2.006 6.374 3.128 9.525.714 1.765 1.145 3.775 2.707 5.017.007-.001.31.289.349.251.032-.671.17-1.342.123-2.018.564-2.381-1.298-5.2-1.451-7.777-1.263-10.591-.039-21.356 2.774-31.611 2.405-7.528 5.367-14.943 9.1-21.913.214-.393.46-.774.715-1.153.829-.144 1.75-.477 2.633-.837-.32.625-.636 1.253-.954 1.878-3.632 7.168-6.586 14.677-8.891 22.373a89.949 89.949 0 0 0-1.824 7.176c-.577 2.7-1.128 5.42-1.239 8.186a15.185 15.185 0 0 0 .454 4.283c.661 2.653 1.539 5.257 2.549 7.796 1.975 4.876 4.864 9.309 7.346 13.93 2.933 5.234 3.988 7.297 4.53 13.375.808 7.473.2 15.091-1.364 22.429-1.046 4.739-2.242 9.454-4.103 13.948-.354.802-.73 1.594-1.105 2.386-.21.465-.728 1.175-.034 1.482a.547.547 0 0 0 .622-.198c.413-.529.757-1.119 1.111-1.687 1.114-1.757 2.04-3.618 2.943-5.487 1.192-2.399 2.348-4.818 3.3-7.324.967-2.499 1.515-5.137 2.02-7.762 1.079-5.49 1.786-11.068 1.564-16.673-.143-4.001-.523-7.997-.978-11.975-.952-5.368-3.818-10.138-6.348-14.89-1.221-2.17-2.321-4.423-2.769-6.892a16.787 16.787 0 0 1-.401-4.279c.292-5.132 1.171-10.22 2.12-15.265 1.206-6.033 2.623-12.025 4.332-17.936.667-2.315 1.542-4.919 2.377-7.382.919-1.608 1.903-3.176 2.892-4.742.091-.026.182-.052.274-.076-.154 1.133-.251 2.278-.345 3.414-.292 3.851-.193 7.731.2 11.571.251 2.663.628 5.31 1.178 7.929.491 2.571 1.161 5.128 2.241 7.519 1.354 2.834 3.793 4.942 5.675 7.412.546.653 1.089 1.31 1.564 2.016.314.653.471 1.372.673 2.064.451 1.984.886 3.984 1.214 5.987.198 1.787.158 3.684 1.128 5.267.046-.172.069-.38.109-.563.089.173.173.354.278.505.402-1.646.128-3.311.105-4.981-.169-2.684.417-5.341.295-8.023.05-.956.226-1.913.328-2.869.156-.676.078-1.385-.322-1.965-.477-.781-1.463-.921-2.13-1.479-.908-.727-1.637-1.638-2.362-2.54-1.015-1.38-2.034-2.768-2.759-4.329-.707-1.449-1.185-2.997-1.574-4.559-1.576-6.368-.92-12.964-.371-19.42.119-2.186.169-4.377.272-6.566.01-.15.01-.294 0-.433.62-.462 1.224-.934 1.815-1.416-.05.478-.09.954-.15 1.41-.36 3.716-.521 7.451-.535 11.184.026 2.579.262 5.154.646 7.704.397 2.617.797 5.256 1.632 7.774 1.515 3.64 4.249 6.601 6.597 9.714a73.298 73.298 0 0 1 4.189 6.309 13.317 13.317 0 0 1 1.362 3.374c1.043 4.56 1.382 9.251 1.915 13.89.167 2.099.56 4.166.853 6.247a13.954 13.954 0 0 0-1.239 1.839c-1.005 2.078-1.669 4.301-2.415 6.482-.158.481-.319.961-.48 1.441a35.487 35.487 0 0 0-.23-2.784c-.508-3.939-1.889-7.828-4.477-10.888-4.014-4.684-8.962-8.483-12.999-13.144-1.211-1.787-1.564-4.002-2.171-6.04a101.124 101.124 0 0 1-1.957-10.577c-.053-.712-.1-1.423-.139-2.136-.128-3.256-.101-6.515-.235-9.771-.115-2.258.144-4.636-.732-6.755-.139.782-.697 1.446-.825 2.248-.234 1.327-.532 2.642-.773 3.968-.392 2.908-.804 5.83-.882 8.767.016 1.292.139 2.573.319 3.849a88.173 88.173 0 0 0-.491 8.958c.021 4.434.374 9.833 3.017 13.544 1.299 1.494 2.978 2.629 4.537 3.835.383.282.786.536 1.192.786.423.677.834 1.361 1.264 2.029 2.43 4.053 4.479 8.315 6.616 12.525 1.744 3.37 3.252 6.914 3.785 10.697.278 1.49.377 2.999.164 4.505-.497 4.448-1.838 8.729-3.401 12.907a81.073 81.073 0 0 1-2.594 6.154c.668-4.868 1.014-9.786 1.205-14.689l-.006.272c.05-1.763.04-3.309.014-5.271-.133-2.954.534-6.123-.758-8.894-1.487-2.494-3.113-4.909-4.652-7.371-1.231-1.657-2.242-3.453-4.018-4.632-.08-.05-.256-.252-.359-.197-.003.013.007.054.016.023.203.848.255 1.741.655 2.542.272.553.55 1.104.822 1.656.093.483.236.961.371 1.424.679 2.081 1.228 4.206 1.506 6.379.379 3.581.204 7.191.15 10.784-.196 5.205-.396 10.423-1.029 15.597-.877 5.606-2.94 10.921-5.216 16.09-1.262 2.899-2.763 5.684-3.913 8.628zm30.544-55.906c.073.582-.148 1.328.292 1.79.36.363 1.055.102 1.108-.398.136-.709.202-1.433.3-2.147.254-2.328.635-4.641.961-6.96l.1-.773c1.299-1.202 2.663-2.329 4.035-3.446-.083 2.219-.138 4.438-.265 6.654-.095 1.316-.214 2.63-.357 3.941-.51 1.57-.802 3.203-.956 4.846-.046.589-.269 1.243.066 1.784 1.196 1.319 2.01-.61 2.521-1.536 1.535-2.918 2.482-6.098 3.572-9.199 1.162-3.435 2.307-6.878 3.188-10.397.27-1.093.545-2.185.824-3.277a148.17 148.17 0 0 0 5.104-4.632c-.24 1.514-.499 3.024-.736 4.539-.351 1.633-.408 3.28.116 4.887l.003.002c1.719-1.704 2.195-4.141 2.936-6.365.768-2.589 1.735-5.157 2.328-7.798l.06-.065c1.059-1.11 2.115-2.238 3.042-3.458-1.169 7.895-1.308 15.933-.157 23.844.314 1.933.674 3.862 1.255 5.735.233.75.469 1.529 1.048 2.089 1.022 1.049 2.921.501 3.095-.972l.002.003c-.065-1.632.35-3.219.716-4.804.404 1.581.999 3.095 1.665 4.578.848 1.908 1.886 3.968 3.889 4.865.827.443 1.616.335 2.197-.062.45.144.915.246 1.387.321-4.688 1.807-8.766 4.945-12.223 8.561-2.94 2.952-5.792 6.132-7.468 9.996.019-1.664.043-3.337.29-4.989.399-1.074.999-2.199.795-3.375-.263-1.379-2.428-1.362-2.629.04-.686 2.001-1.784 3.836-2.935 5.602-3.541 5.871-7.928 8.08-13.653 11.362.512-1.877 1.185-3.762 1.43-5.689-.279-1.1-1.31-.534-1.725.14-3.06 3.548-6.794 6.467-10.693 9.039-2.419 1.43-4.96 2.632-7.448 3.932a98.713 98.713 0 0 0 3.963-8.866c1.839-4.914 4.822-12.489 3.825-17.791.554-1.251.627-2.743.382-4.341.008-.043.018-.086.028-.129.159-.853.272-1.714.341-2.577 1.022-2.864 2.052-5.731 3.453-8.428.264-.518.565-1.011.897-1.481a158.802 158.802 0 0 0-.007 3.717c.006.561.023 1.125.038 1.688zm59.14 8.694a39.32 39.32 0 0 0-1.638 1.514c-1.331.215-2.342 1.169-3.409 1.917-1.309.96-2.611 1.919-3.851 2.967-4.519 3.848-8.827 8.071-13.919 11.164a45.577 45.577 0 0 1-9.575 3.225c-2.354.556-4.791.393-7.129 1 .006-.001-.105 0-.085.017.471.473 1.074.785 1.718.973 1.178 1.298 2.951 1.641 4.643 2.124 2.516.652 5.1 1.091 7.696 1.222 2.727.02 5.497-.233 8.14-.921 1.318-.389 2.585-.919 3.842-1.47a52.341 52.341 0 0 0 6.58-3.493c.05-.03.099-.063.15-.098.159 4.745.665 9.515.326 14.245-.928-2.175-1.459-4.503-2.333-6.692-.695-1.417-2.91-1.375-3.537.07-.488 1.377-.234 2.909-.415 4.348-.149 2.46-.44 4.912-.934 7.326a5.78 5.78 0 0 0-1.787-.648c-3.163-.217-6.364.168-9.531-.205-5.092-.253-9.872-2.12-14.18-4.77-2.899-1.734-5.654-3.703-8.117-6.016-.558-.378-1.729-1.247-2.392-.996.202.182.331.434.439.708-.067-.004-.126.009-.08.075.009.004.004-.012.007-.016.31.562.3 1.257.518 1.862.453 1.221 1.156 2.337 1.704 3.518 1.41 2.745 2.58 5.601 3.98 8.349 1.431 2.539 2.702 5.333 4.934 7.281 3.773 2.719 8.305 4.306 12.923 4.769a61.838 61.838 0 0 1-6.046 2.97 4.545 4.545 0 0 0-1.117-.615c-1.167-.449-2.44-.382-3.661-.58-1.446-.239-2.868-.582-4.288-.944-2.428-.633-4.909-1.13-7.207-2.168-2.866-1.421-5.704-3.032-8.045-5.238-1.497-1.643-2.587-3.612-3.561-5.598-.894-1.852-1.649-3.766-2.172-5.756-.31-1.207-.598-2.421-.788-3.652-.101-.728-.348-1.404-.54-2.111-.027-.15-.138-.462-.038-.619l.001-.001h.001l.004-.001-.001.001h.003v-.001c.002.002.006.003.006-.001-.001-.014-.024-.013-.033-.015-.098-.018-.28.209-.304.239-1.178 1.489-.978 3.417-.794 5.238.023.563.063 1.128.087 1.688.145 3.269.182 6.541.25 9.812.171 3.909.824 7.94 3.042 11.249a16.586 16.586 0 0 0 4.062 4.504c.394.304.796.611 1.209.907-4.556.459-9.179.469-13.664-.256-.496-.522-1.111-.903-1.69-1.329a16.505 16.505 0 0 1-3.51-4.224c-1.35-2.542-2.505-5.187-3.247-7.973-.169-.552-.287-1.122-.463-1.671-.234-.624-.59-1.139-.999-1.665-.094-.13-.205-.256-.265-.408a.03.03 0 0 0-.045-.003c-.574.688-1.02 1.546-1.116 2.449-.042.515-.049 1.04-.057 1.556a14.995 14.995 0 0 0 .439 4.241c.389 1.622.885 3.246 1.56 4.78-2.357-1.4-4.595-3.004-6.801-4.629-.638-.475-1.264-.944-1.975-1.306a2.182 2.182 0 0 0-.303-.116c2.541-3.042 4.798-6.322 7.162-9.501.292-.385.579-.772.863-1.163.314-.345.589-.733.833-1.164.201-.283.398-.568.592-.854.133.831.426 1.649.716 2.436.475 1.373 1.133 2.673 1.876 3.919 1.114 1.89 2.489 3.614 3.96 5.238 1.039 1.082 2.258 1.974 3.38 2.967 1.067.966 2.145 1.909 3.43 2.57a5.967 5.967 0 0 1-.2-.328c.246.159.507.289.786.382.06.02.257.053.258-.045-.173.021-.246-.248-.337-.427-.301-1.004-.739-1.95-1.201-2.89-1.201-2.696-2.224-5.555-2.953-8.472-.568-2.467-.884-4.984-1.078-7.506-.188-1.478.265-3.016-.3-4.434l-.053-.131.281-.146c5.598-2.559 9.956-6.967 13.9-11.585-.342.997-.833 1.974-.974 3.023.008 2.062 2.23 1.505 3.488.959 3.035-1.035 6.04-2.257 8.661-4.133 2.956-2.264 4.951-5.557 7.044-8.586.203 1.469-.655 6.157 1.763 5.787 2.348-1.248 3.324-4.213 5.009-6.183 4.84-6.072 10.412-12.011 17.697-15.068 1.249-.505 2.536-.981 3.849-1.34l3.753.217c-4.941 2.365-9.351 5.73-13.65 9.105-2.014 1.589-3.882 3.35-5.906 4.925-1.173.783-2.272 1.73-2.995 2.952 2.118.238 3.899-1.115 5.612-2.155 3.534-2.378 7.31-4.336 11.004-6.443 2.785-1.601 6.038-3.235 9.077-4.718 1.63-.817 3.477-1.379 4.661-2.728.347.102.695.206 1.042.305-1.417 1.044-2.808 2.413-3.672 3.112zm59.602 15.113a63.386 63.386 0 0 1-.001-3.292c.049-1.9.096-3.807.403-5.687.268-1.651.637-3.297.69-4.974 3.216 1.328 2.867 2.852 1.911 5.737-1.031 2.726-1.956 5.495-3.003 8.216zm17.503 2.223c-.058-.93-.126-1.86-.225-2.786-.106-.983-.247-1.96-.385-2.939-.422-2.537-.379-5.063-.143-7.661 1.468.779 3.349 1.719 3.435 3.604.045 3.425-1.151 6.759-2.682 9.782zm7.06-7.851a36.62 36.62 0 0 1-.519 4.002c-.202.849-.353 1.737-.847 2.476-.533.711-1.544.76-2.363.76l-.005-.001c1.422-2.612 2.486-5.488 2.358-8.492.027-2.702-2.259-4.625-4.652-5.405-.805-.289-1.625-.537-2.424-.842-.492-.357-1.226.083-1.147.681.011 4.208.369 8.482.446 12.739-1.227-.277-2.526-.484-3.782-.86a6.086 6.086 0 0 1-1.633-.882c1.038-2.582 1.582-6.265 1.76-8.509.148-2.557.198-5.117.181-7.678-.084-1.843.077-4.597-.727-6.51.909.246 1.862.293 2.794.424 1.97.283 4.088.38 5.806 1.489 1.709 1.332 2.95 3.235 3.728 5.245 1.255 3.634 1.147 7.568 1.026 11.363zm9.669 1.586c-.193 2.082-.563 4.186-1.5 6.075a36.43 36.43 0 0 0-.21-2.533c-.105-.896-.305-1.776-.443-2.666-.436-2.32-.383-4.672-.334-7.018 2.472 1.465 2.71 3.494 2.487 6.142zm10.611 3.065c-.929-3.263-1.243-6.744-1.817-10.122 1.799.872 2.67 1.832 2.748 3.887.091 2.116-.27 4.228-.931 6.235zm3.887-7.107-.074.098c-.592-2.427-2.478-3.755-6.028-4.432a.527.527 0 0 0-.762.006 49.322 49.322 0 0 0-.736-3.194c-.72-2.357-1.173-4.835-2.247-7.065-1.753-3.022-6.356-3.164-9.367-4.307-2.146-.354-3.87-6.972-4.861-8.897-.629-1.227-2.286-.052-1.423.94.75 2.86 1.699 5.663 2.401 8.536.443 2.316 2.984 2.835 4.948 3.248 1.697.499 4.049.534 5.239 1.956.618 1.444.921 3.001 1.37 4.5 1.177 3.637 1.808 7.437 1.544 11.266-.207 1.531-.484 5.383-1.686 6.358-.353.267-.765.392-1.195.457a16.536 16.536 0 0 0 1.097-3.497c1.062-5.52-.614-8.405-5.949-10.175-.256-.333-.778-.404-1.103-.08-.3.299-.261.763.006 1.035.159 3.385.485 6.802.611 10.2.022.763-.01 1.524-.061 2.286-.389-.126-.871-.177-1.446-.121-.586.016-1.187.127-1.775.098.829-2.358.909-5.365.994-7.367-.125-5.703-.153-11.966-3.77-16.703-1.357-1.835-3.183-3.192-5.566-3.006-.43.01-.859.039-1.285.081-.1-.247-.217-.488-.315-.722-1.251-2.381-2.907-4.527-4.074-6.961a59.682 59.682 0 0 1-1.223-2.689.54.54 0 0 0-.249-.322c-.49-.299-1.042.297-.759.759.701 2.992 1.761 5.879 2.807 8.764.19.548.399 1.089.637 1.619-.87.135-1.742.258-2.62.317-.309.045-.803-.076-1.073.094a3.28 3.28 0 0 0-.371-.434c-1.626-1.442-3.935-1.614-5.839-2.545-1.215-.644-1.937-1.905-2.753-2.966-1.344-1.925-2.061-4.191-3.238-6.204-.385-.619-1.276-.19-.997.471.839 2.56 1.549 5.163 2.505 7.685.423 1.193.772 2.489 1.713 3.394 1.46 1.407 3.533 1.776 5.385 2.42.641.203.753.329.871.985.498 3.067.785 5.858.847 9.037.042 3.692-.328 7.76-2.804 10.688-.718.812-1.76 1.144-2.748 1.535.473-.972.903-1.964 1.299-2.972 1.539-3.873 3.247-9.144-1.992-10.856-.693-.246-1.4-.429-2.111-.61a.563.563 0 0 0-.564.004c-1.072.078-1.185 1.131-1.155 1.999-.043 1.381-.202 2.756-.36 4.128-.241 2.197-.302 4.403-.409 6.608a59.29 59.29 0 0 0-.038.729c-1.292-1.091-2.682-2.092-3.692-3.452-1.262-1.768-1.418-3.97-1.702-6.054a67.915 67.915 0 0 1-.352-3.372c-.162-2.741-.105-5.49-.158-8.233.058-.364-.331-.649-.664-.508a.477.477 0 0 0-.247.634c-.005.518-.04 1.033-.071 1.551a159.608 159.608 0 0 1-.368 4.872c-1.96-1.406-4.316-2.046-6.462-3.097-1.468-.738-2.776-1.729-3.98-2.841-.206-.221-.494-.4-.753-.109-.275.387.178.617.431.836.367.353.719.719 1.064 1.094-.801-.103-1.702-.075-2.987.04.193-.606.322-1.266.464-1.963 2.888-11.294 4.425-12.05 13.738-18.647.798-.542 1.604-1.072 2.388-1.635.707-.486 1.168-1.243 1.677-1.897-.92.396-1.843.812-2.715 1.312-1.46.369-2.898 1.02-4.321 1.512-1.62.528-3.263.96-4.918 1.367-2.478.609-4.948 1.271-7.335 2.181-3.036 1.039-4.779 2.052-5.446 5.389-.559 2.884-3.292 9.5-2.372 13.366l-.715.09c-.185-.688-.477-1.375-.781-2.187a16.07 16.07 0 0 1-.171-.525c.007-.207.008-.418.008-.631.075-1.407.146-2.818.353-4.213.406-2.539 1-5.043 1.763-7.498.297-.867.685-1.702 1.167-2.483.624-.942 1.522-1.637 2.439-2.276a35.42 35.42 0 0 1 4.247-2.455c2.18-1.094 4.708-2.042 6.662-3.577-2.41.798-4.804 1.681-7.201 2.529-.542.204-1.079.422-1.611.65a8.625 8.625 0 0 0-1.381.305c-2.02.802-3.955 1.815-5.976 2.618-1.183.504-2.42.951-3.455 1.73-3.183 2.585-4.982 6.489-6.253 10.299a36.252 36.252 0 0 0-.968 3.654 12.102 12.102 0 0 0-.372 2.016c-.484-.621-1.035-1.173-1.52-1.883a21.326 21.326 0 0 1-1.023-1.779c-.71-1.454-1.152-3.021-1.466-4.603-.378-2.316-.757-4.699-.443-7.042.78-2.811 2.537-5.212 3.855-7.783.768-1.375 1.515-2.828 1.681-4.397a7.057 7.057 0 0 0-1.811 1.771 8.343 8.343 0 0 0-.523.34c-1.405 1.028-2.808 2.252-4.243 3.273-2.083 1.503-4.278 2.868-6.229 4.545-1.287 1.072-2.184 2.531-2.719 4.107-1.26 3.924-.367 8.156 1.057 11.912l.025.059c-.92-.491-1.879-.877-2.962-.79-2.114.095-4.23.172-6.346.248.868-1.898.588-4.102.898-6.317.511-4.678 1.835-9.482 4.791-13.226 3.319-3.566 7.116-6.648 10.803-9.818 1.846-1.599 3.803-3.067 5.625-4.696 1.189-1.071 2.562-2.094 3.236-3.653.034-.08.119-.211.151-.298a6.297 6.297 0 0 0-1.99.741c-1.694.387-3.21 1.305-4.769 2.069-2.263 1.143-4.595 2.141-6.861 3.276-5.786 2.994-11.596 6.116-16.488 10.474-3.204 2.749-6.247 5.807-6.514 10.259-.35 2.439-.441 4.901-.547 7.359-.142.892-.173 1.85 0 2.744-.814-.801-1.601-1.631-2.231-2.587-1.637-2.39-2.696-5.131-2.938-8.033-.142-1.593.009-3.19.029-4.778-.143-1.097-1.717-1.252-2.058-.21-.594 2.774-1.12 5.575-1.91 8.308-.942-5.087-1.399-10.263-1.232-15.447.086-2.249.324-4.487.657-6.711.626-.908 1.014-1.969 1.518-2.959.695-1.398 1.522-2.723 2.266-4.093.738-1.419 1.406-2.879 2.279-4.224 3.057-4.544 6.819-8.558 10.467-12.625 1.76-1.919 3.432-3.923 5.35-5.688.897-.832 1.804-1.653 2.7-2.486 1.596-1.6 3.485-2.971 4.8-4.813-1.574.565-2.854 1.645-4.099 2.725a154.15 154.15 0 0 1-5.984 4.74c-1.541 1.174-3.013 2.438-4.586 3.571-1.535 1.073-3.093 2.121-4.553 3.296a33.135 33.135 0 0 0-5.857 5.899c.158-.367.322-.733.487-1.097.782-1.808 1.797-3.543 2.253-5.474.374-1.902.605-3.83.996-5.731.753-3.743 1.762-7.436 2.372-11.208.056-.459.281-1.383-.473-1.278a.445.445 0 0 0-.298.552c-.367 2.319-1.031 4.583-1.668 6.841-.925 3.027-1.733 6.113-3.164 8.954-2.222 3.833-4.665 7.621-5.833 11.947a98.211 98.211 0 0 0-1.495 6.232 19.39 19.39 0 0 0-.884 1.567c-.754 1.509-1.656 2.866-2.658 4.163.014-.154.025-.307.035-.461.076-1.355-.192-2.698-.563-3.994-.413-1.53-.669-3.105-1.129-4.619-.277-.742-.715-1.408-1.027-2.132-.135.133-.208.376-.291.553-.96 2.116-.423 4.511-.868 6.743-.651 3.054-.684 6.183-.985 9.282a68.757 68.757 0 0 1-4.666 4.118 931.603 931.603 0 0 1 2.312-8.678c.614-2.551 1.322-5.15 1.159-7.796-.455-4.255-1.467-8.431-1.442-12.737-.082-1.634-.173-3.267-.138-4.904.1-1.492.141-3.137-.202-4.518-.961.952-1.62 2.157-1.828 3.501-.319 1.395-.608 2.787-.751 4.213-.264 2.634-.489 5.289-.426 7.939.144 1.36-.37 2.662-.64 3.981-1.266 5.71-3.41 11.155-5.294 16.676-.96 2.379-1.7 4.851-1.807 7.431a82.318 82.318 0 0 0-.125 1.79l-.698.51c-.984.735-1.987 1.479-2.953 2.27.301-2.221.552-4.446.563-6.69.098-2.6-.12-5.196-.444-7.775-.247-1.927-.431-3.899-1.106-5.735-1.001-2.637-3.043-4.673-4.607-6.973-1.491-2.208-2.554-4.669-3.838-6.998-1.603-2.978-3.143-6.016-4.069-9.284-1.938-6.533-3.171-13.316-2.934-20.152.033-1.299.107-2.597.195-3.892a75.794 75.794 0 0 0 2.048-2.041c-.225 2.881.082 5.918.548 9.037.412 2.575 1.111 5.093 1.802 7.606.448 1.535.869 3.1 1.468 4.584.277 1.881.596 3.808 1.92 5.219.581-2.083.113-4.258.046-6.388a90.251 90.251 0 0 1 .296-11.627c.38-4.386 1.029-8.744 2.005-13.038.172-.81.43-1.668.596-2.525l.041-.043c.037-.04.073-.081.108-.122a30.45 30.45 0 0 0 1.658 8.287c.893 2.479 2.041 4.855 3.025 7.298 1.198 3.251 3.246 6.147 3.995 9.556.567 2.271.644 4.625.928 6.941.119 1.146.262 2.382.354 3.616-.279 2.413-.577 4.825-.868 7.236-.277 2.519-.533 5.041-.878 7.551-.077.605-.242 1.195-.288 1.803-.031.815.056 1.633.162 2.44.956-.954 1.539-2.123 1.964-3.431.64-1.846 1.078-3.755 1.535-5.651 1.278-5.223 2.537-10.467 3.121-15.82.208-2.579.799-5.212.26-7.782-.263-1.268-.758-2.466-1.173-3.688a46.807 46.807 0 0 1-1.536-5.512c-.622-3.223-.557-6.536-.546-9.805.023-2.055.337-4.261.648-6.323.55-3.679 1.697-7.236 3.13-10.66.246-.563.491-1.127.755-1.68.621-1.308 1.493-2.56 1.457-4.068a3.301 3.301 0 0 0-.001-.199c1.193-.48 4.527-.857 6.952-1.528-.376.581-.76 1.156-1.089 1.748-1.595 2.733-3.466 5.325-4.733 8.233-1.474 3.57-3.073 7.129-4.185 10.823-.037 1.32.635 2.543.891 3.822a774.112 774.112 0 0 1 1.698 6.713c.576 2.184 1.147 4.375 1.835 6.529.284.906.611 1.801 1.005 2.666.183.408.596.624 1.027.619 1.432-.154.899-1.843.681-2.781-.404-1.596-.652-3.22-.842-4.854-.339-3.056.016-6.123.718-9.103.886-4.085 2.333-8.031 3.839-11.966-.138 1.67-.352 3.381-.054 5.045.098.586.378 1.103.621 1.638.421 1.144.766 2.316 1.11 3.486 1.087 3.549 2.018 7.223 3.862 10.472 1.206 5.617 1.036 11.396.599 17.097-.258 2.321-.322 4.694-.907 6.962-.277.915-.573 1.826-.813 2.753-.066.255-.186.549-.113.812l.007-.001a.494.494 0 0 0 .611.316c.333-.1.445-.533.564-.82a92.615 92.615 0 0 0 1.19-3.078c1.291-3.568 2.323-7.219 3.415-10.85.755-2.566 1.565-5.09 2.18-7.73.392-1.551.074-3.148-.262-4.68-.85-3.769-1.742-7.526-2.507-11.312-.513-2.401-.899-4.839-.885-7.299.414-3.681 1.612-7.257 2.993-10.68 1.247-2.927 2.792-5.708 4.407-8.445.259-.372.444-.789.609-1.218.395-.046.788-.095 1.182-.147a6.456 6.456 0 0 0-.776 1.126c-2.16 3.451-3.257 7.444-4.126 11.386-.535 2.918-1.148 5.839-1.309 8.806-.022.617-.083 1.231-.053 1.847.025.355.356.588.685.607.91.032 1.194-1.508 1.559-2.174 1.178-2.869 2.221-5.809 3.761-8.512 2.507-4.274 5.688-8.115 8.919-11.856-1.327 3.284-1.926 6.852-2.552 10.351-.414 2.678-.424 5.284-1.018 7.978-1.373 6.197-3.011 12.333-4.569 18.486-.279.774-.561 1.55-.805 2.334-.122.278-.021.672.311.738.312.084.554-.163.637-.447.15-.411.329-.808.502-1.21.647-1.508 1.341-2.997 2.014-4.494 2.724-6.359 5.263-12.804 8.313-19.02 1.005-2.141 2.197-4.188 3.321-6.268-.026.326-.05.654-.07.982-.359 3.794-.394 7.599-.377 11.403-.324 3.353-1.474 6.551-2.499 9.74a89.6 89.6 0 0 1-3.915 9.654c-.503 1.146-1.155 2.191-1.893 3.199-.653 1.047-1.504 2.076-1.769 3.302h.005a.859.859 0 0 0 .019.356c.141.534.733.791 1.219.595 1.06-.54 1.699-1.658 2.462-2.538 1.54-2.001 2.931-4.112 4.395-6.168 4.245-6.401 8.881-12.753 11.157-20.176 1.778-5.287 2.138-10.765 3.893-16.098 1.802-5.051 4.133-9.9 5.8-15.002a5.234 5.234 0 0 0 .295-1.736c5.769-3.7 11.214-7.937 16.637-12.192-.236.489-.47.98-.696 1.473-2.095 4.596-4.136 9.087-6.607 13.524-3.921 7.153-8.378 13.987-12.444 21.054-2.197 3.744-3.775 7.817-5.01 11.981-.311.961-.707 1.925-.789 2.939-.425 5.753 4.255 15.234 7.189 20.209.899 1.533 1.863 3.026 2.758 4.561.931 1.668 1.691 3.424 2.593 5.107 1.012 1.958 2.098 3.877 3.154 5.812.232.47.525.9.868 1.286-.77.464-1.509.979-2.271 1.455-2.172 1.317-4.436 2.477-6.652 3.716-2.792 1.524-5.601 3.023-8.473 4.392-.423.201-.855.421-1.298.577a.435.435 0 0 0-.237.57c.097.23.4.345.617.205 5.147-2.277 10.065-5.153 15.377-7.058 1.686-.604 3.457-.857 5.181-1.314 4.284.823 8.412 2.245 12.492 3.768 2.261.797 4.304 2.037 6.287 3.363-.315.047-.64.104-.979.169-2.384.398-4.519 1.611-6.564 2.842-1.951 1.173-3.534 2.834-5.233 4.326-1.258 1.123-2.53 2.229-3.792 3.348-1.025.861-1.966 1.797-2.719 2.897-.788.652-1.456 1.404-1.739 2.338.366-.616 1.094-.931 1.671-1.34 1.65-1.12 3.532-1.825 5.326-2.678 4.703-2.277 6.109-2.35 11.238-2.292 2.531.053 5.06-.101 7.589-.109 1.568.046 3.136.089 4.703.005 1.122-.012 2.267-.034 3.277-.59l.016-.008c.215.148.432.292.653.431-1.725.398-3.45.8-5.185 1.149-2.236.471-4.497.792-6.781.905-.334.022-.567.377-.524.691a.62.62 0 0 0 .691.524c1.56-.189 3.136-.211 4.701-.354 4.989-.322 9.961-1.206 14.972-.981.169.017.337.039.505.065.622.407 1.289.728 1.946 1.076 2.095 1.081 3.97 2.521 5.761 4.046 2.919 2.727 5.622 5.694 7.898 8.984 1.187 1.814 2.215 3.723 3.424 5.523 1.212 1.804 2.756 3.357 4.287 4.889 1.459 1.277 2.841 2.677 4.497 3.701 3.148 1.91 7.011 1.546 10.526 2.225.208.176.429.346.667.508 1.251 3.237 2.9 6.337 3.591 9.766.341 2.242 1.037 4.827-.397 6.83zm30.031 1.601c-.247 1.647-2.081 3.034-3.013 4.527l-.006-.013c-.018-.214-.193-.394-.432-.362a.391.391 0 0 0-.302.534c.231 1.69.417 3.592-.381 5.158-.97 1.222-2.293 2.089-3.537 3.035.022-1.017.132-2.034.325-3.03.244-1.003-1.321-1.211-1.358-.185-.18 1.411-.26 2.88-.768 4.219-1.445 1.951-4.116 2.285-6.336 2.77.411-.848.814-1.7 1.241-2.54.226-.456.556-1.054.129-1.497-.178-.185-.498-.26-.734-.144-1.433 1.106-2.99 2.027-4.722 2.601-.843.262-1.697.542-2.571.667-1.274-.399-2.438-1.094-3.654-1.637.72-.558 1.727-.881 2.224-1.666.144-.344-.045-.795-.426-.88-.977-.033-1.995.213-2.956-.115-.724-.155-.772-1.003-1.054-1.568-.823-1.776-1.057-3.735-1.234-5.665-.038-.563-.032-1.127.082-1.682.019-.13.014-.25-.009-.359l.036-.049c.68-.788 1.499-1.442 2.149-2.256.065-.079.128-.158.189-.236.652.482 1.427.854 2.049 1.149 1.464.546 3.029.04 4.494-.265 1.443-.285 2.907-.496 4.381-.413 3.71.362 7.212 1.877 10.894 2.396 2.137.287 3.538-1.686 4.034-3.533.134-.48.243-.967.39-1.445a.811.811 0 0 0 .157-.615c.107-.179.2-.367.277-.562.253 1.209.441 2.424.442 3.661zm-13.532-22.257c.204.284.404.593.652.842.41.453 1.208.4 1.514-.141.214-.376.271-.828.352-1.247.161-.749.375-1.483.579-2.22.317.834.656 1.66 1.026 2.473.112.233.239.503.457.66.413.335.866.011 1.057-.398.455-.793.837-1.628 1.127-2.496.14.57.253 1.145.392 1.715.074.303.146.683.471.818.937.306 1.271-.977 1.671-1.572.095.423.15.852.227 1.278a21.108 21.108 0 0 0-2.145 3.539 4.216 4.216 0 0 0-.261.789c-.88-.909-1.97-1.484-3.191-1.121-1.701.71-3.333 1.729-4.614 3.062-.115.119-.232.236-.346.357-1.011-1.058-2.212-1.942-3.493-2.663.038-.007.074-.015.112-.024 1.211-.334 1.523-1.645 1.783-2.715.295-1.313.574-2.629.849-3.945.488 1.061 1.101 2.058 1.781 3.009zm-.971-4.157a514.95 514.95 0 0 0 2.505-.719c.308-.084.618-.164.927-.242-.115.207-.183.446-.277.66-.4 1.039-.815 2.076-1.157 3.135-.743-.882-1.535-1.762-1.998-2.834zm2.943 15.005c-.728-1.323-1.472-2.658-2.42-3.838.465-.364.974-.67 1.498-.941.947-.376 2.061-.868 3.08-.561.753.611 1.495 1.255 2.152 1.975.508.609 1.062 1.198 1.442 1.899.363.824.658 1.683.874 2.556.132 1.007.073 2.028.163 3.038-.175.467-.38.923-.623 1.359-.322-.775-.637-1.991-1.566-2.196-.353-.026-.744.135-.874.492-.382.439-.763.876-1.122 1.334-.024-.374.036-.783-.107-1.136-.216-.52-.893-.728-1.37-.445-.626.525-1.045 1.294-1.455 1.996-.248-.964-1.1-1.92-2.16-1.86-.917.188-1.11 1.328-1.396 2.079-1.116-1.969-3.073-4.577-4.71-1.424-1.172-2.075-1.819-4.402-1.826-6.786-.054-.886-1.018-1.569-1.852-1.177-.554.264-.873.832-1.268 1.279-.438.569-.891 1.138-1.25 1.763.004-.814.008-1.628.004-2.442.259-.056.484-.263.609-.496.888-.751 2.001-1.197 3.116-1.49.672-.167 1.311-.227 1.953.082 1.448.518 2.894 1.129 4.117 2.078.531.443 1.149 1.079 1.63 1.622.489.572.96 1.157 1.418 1.755.351.42.647.99 1.2 1.164 1.053.178 1.174-.982.743-1.679zm4.548 8.086c-.408.313-.812.716-1.36.728-.473.052-.646-.451-.909-.783.382-.222.49-.701.699-1.065.296-.577.654-1.117 1.036-1.641.268.9.408 1.833.534 2.761zm-3.304-.948c-.475.37-.702 1.181-1.439 1.096a.71.71 0 0 0 .154-.168c.101-.152.15-.339.208-.512.233-.699.494-1.39.844-2.039.083.54.192 1.077.233 1.623zm-2.467.532c-.453.297-.889.713-1.447.791a.966.966 0 0 1-.396-.104c.239-.189.279-.501.285-.785.083-.825.169-1.663.447-2.449.129.097.247.228.33.366.398.666.653 1.416.781 2.181zm-3.247.056c-.39.355-.921.517-1.437.572-.373-.008-.775-.035-1.121-.183-.178-.166-.285-.391-.418-.592.436-1.029.313-2.237.66-3.302.315.158.514.47.726.74.578.891 1.084 1.83 1.59 2.765zm-8.191-8.222c.566 2.708 1.67 5.282 3.006 7.694-.735.93-2.078 1.582-3.217 1.005-.462-.175-.712-.58-.925-1.001a.88.88 0 0 0-.362-.339c.021-1.012-.12-2.055-.337-3.118a24.313 24.313 0 0 0-.269-1.288c.439-1.135 1.204-2.175 2.104-2.953zm.308 10.014c1.316.101 2.575-.399 3.637-1.157 1.295 1.165 3.326.978 4.803.267.748.74 1.835.269 2.638-.118.795 1.215 1.925.235 2.703-.445h.001c1.036 1.621 1.58 1.601 3.313.997.542.503 1.151 1.011 1.851 1.281-2.008-.353-4.031-.561-6.071-.566-2.486-.09-5.004-.21-7.465.239-1.513.116-3.775 1.299-5.152.727-.493-.316-.773-.81-1.019-1.335.253.05.51.086.761.11zm18.653-.814c.749-1.018 1.295-2.204 1.797-3.362.585-1.37.635-2.872 1.056-4.283.609.942.629 2.152.409 3.222-.158 1.024-.615 1.922-1.159 2.788-.37.723-.648 1.535-1.409 1.943a9.514 9.514 0 0 1-.694-.308zm2.728-9.616a1.41 1.41 0 0 0-1.165.81 5.38 5.38 0 0 0-.088.272c-.098-1.25-.195-2.556-.651-3.743-.009-.958.203-1.91.525-2.823.315-.863.676-1.708 1.037-2.553l-.113.461c-.114.833-.786 1.881-.148 2.623.409.364.936.334 1.459.181-.059.133-.12.266-.184.398-.882 1.54-.929 2.952-.672 4.374zm-.536-11.372a.712.712 0 0 0-.129.107l-.118.145a21.706 21.706 0 0 1 .021-1.634c.015-.355.09-.743-.08-1.072-.226-.437-.922-.475-1.199-.072-.384.72-.681 1.491-.98 2.253-.1-.542-.159-1.089-.226-1.637-.098-.589-.024-1.506-.788-1.626-.34-.046-.638.173-.787.466-.426 1.194-.723 2.44-1.27 3.594-.518-1.254-.743-2.499-.988-3.848a.958.958 0 0 0-.336-.631c.405-.095.812-.185 1.219-.27.835-.11 1.717-.471 2.55-.287 1.4.467 2.797.939 4.17 1.477-.324 1.021-.534 2.091-1.059 3.035zm-15.699 2c-1.367-.854-2.544-2.147-3.109-3.667 1.143.327 2.347.383 3.515.017.466-.126.931-.253 1.396-.382a26.726 26.726 0 0 0-1.802 4.032zm-1.87 2.072a3.142 3.142 0 0 0-2.022.591c-1.254.747-2.53 1.509-3.604 2.507-.037.034-.077.07-.117.11a46.367 46.367 0 0 0-.19-3.114c-.302-2.828-.323-5.358-.766-8.249-.058-.347-.109-.699-.167-1.052a23.416 23.416 0 0 0 3.289 2.397c.142.09.286.177.433.26-.014 1.154.271 2.322.669 3.39.54 1.249 1.419 2.314 2.475 3.16zm22.605-5.177c-.153.569-.297 1.14-.459 1.706-.569 1.423-1.495 2.803-2.844 3.583.473-1.522.981-3.037 1.29-4.603.091-.542.27-1.125.293-1.692.582.236 1.164.476 1.75.708a4.295 4.295 0 0 0-.03.298zm10.657-7.747c-.175.254-.351.508-.53.761-1.144-.314-2.291-.578-3.484-.439a5.082 5.082 0 0 0-1.629.467c.565.908 1.57 1.46 2.58 1.735.346.055.694.107 1.042.154a11.25 11.25 0 0 1-1.013 1.012c-.647.527-1.297 1.107-2.103 1.372-.441.045-.878-.044-1.315-.1-1.194-.26-2.359-.616-3.517-1.001-2.324-.833-4.482-2.069-6.824-2.857-.732-.232-1.532-.527-2.302-.3-1 .339-1.897.74-2.912 1.072-3.044 1.051-6.253 1.772-9.482 1.986-2.043.052-4.569-1.684-6.359-3.156 1.275.296 2.599.373 3.698-.425-1.005-1.148-2.604-1.416-4.053-1.464a28.297 28.297 0 0 1-2.073-.246 28.037 28.037 0 0 1-1.708-1.692c-1.199-1.488-2.296-3.056-3.395-4.619-.927-1.334-1.519-2.852-2.205-4.314l.007-.059c.506.322 1.008.651 1.504.988a148.77 148.77 0 0 1 3.264 2.195c.416.534.839 1.078 1.385 1.496 1.095.926 2.383 1.581 3.599 2.331.806.488 1.673.926 2.606 1.106.52.075 1.111.095 1.579-.168-.495-.652-1.197-1.099-1.948-1.405-1.533-.671-3.077-1.349-4.436-2.34a6.98 6.98 0 0 1-1.027-1.028c-.261-.384-.485-.81-.894-1.058-1.767-1.161-3.63-2.166-5.448-3.244.245-1.12.663-2.203 1.152-3.24.703-1.402 1.407-2.563 2.169-3.561l.545.414a9.615 9.615 0 0 1 3.247 3.837c.647 1.155 1.434 2.222 2.273 3.245.813 1.121 1.862 2.203 3.316 2.347.292.028.584.009.872-.048-.23-.758-.732-1.392-1.361-1.864-1.165-.844-2.473-1.673-3.363-2.848-.751-.918-1.115-2.05-1.703-3.063-.69-1.234-1.827-2.097-2.973-2.881l-.091-.063c1.707-1.911 3.755-3.211 6.683-4.671-.176.367-.154.934.372.896.23-.033.402-.21.581-.343a8.593 8.593 0 0 1 1.06-.7c1.275-.597 2.57-1.161 3.899-1.627a1.35 1.35 0 0 1 .122-.04c.556.112 1.127.17 1.688.254.659.096 1.281.209 1.937.35a.222.222 0 0 0 .241-.098c.212 1.033.148 2.201-.337 3.15a153.716 153.716 0 0 0-3.113 6.292c-.35.695-.696 1.391-1.056 2.081-.272.491-.571 1.001-.504 1.585.02.409.265.757.507 1.068.368.563.665 1.172 1.028 1.739.829 1.32 1.989 2.39 3.233 3.311 2.988 2.221 6.249 4.126 9.457 6.029.665.35 1.664.487 2.253-.069 5.42-1.146 11.603-5.637 14.095-10.617.29-.685.331-1.487.112-2.198-.608-2.334-1.429-4.447-2.671-6.549a7.53 7.53 0 0 0-.209-.345c.063.024.116.048.155.071 1.56.576 3.031 1.358 4.531 2.071.018.993.376 1.941.554 2.912.255 1.271.411 2.563.711 3.825.068.273.133.546.195.82-.023.033-.046.066-.067.103-.092.185-.121.397-.243.568-.237.325-.546.587-.856.842-.85.768-2.086 1.336-2.572 2.429 1.467.243 3.061-1.148 4.146-2.019.236 1.161.469 2.323.768 3.47a23.19 23.19 0 0 1-1.132 2.595c-.166.009-.332.015-.499.017-1.883.001-3.968-.428-5.627.72.594 1.132 1.977 1.643 3.191 1.755.531.009 1.056-.024 1.575-.095-.289.465-.59.926-.898 1.383zm23.164-7.732c-.111 2.628-.235 5.258-.212 7.89.139 3.173.453 6.336.742 9.497.471 5.208.649 10.459 1.063 15.668a25.956 25.956 0 0 0-1.133-1.943 25.674 25.674 0 0 0-.662-.908c.062-1.124-.349-2.028-.94-2.917a4.94 4.94 0 0 0-.325-1.115 55.55 55.55 0 0 1-1.55-6.385 43.176 43.176 0 0 1-.483-7.746c.02-3.019.674-6.081-.004-9.067-.426-1.816-.914-3.619-1.315-5.442-.203-.911-.757-1.666-1.151-2.493.006-.005 0-.013-.002-.019-.003-.01-.016-.005-.024.001-.019.007-.029.046-.038.07a6.776 6.776 0 0 0-.374 2.606c.212 2.046.206 4.106-.157 6.135-.376 1.861-.755 3.729-1.032 5.608-.863 3.545-1.959 7.17-1.225 10.805.094.384.201.765.318 1.143-1.302-1.002-2.637-1.959-3.941-2.96-1.782-1.291-3.542-2.612-5.314-3.918-1.381-1.004-2.717-2.095-4.133-3.053.169-.226.334-.455.498-.684 2.29.013 4.478-.878 6.606-1.639 1.536-.598 3.074-1.161 4.463-2.072.079-.048.174-.085.242-.134a2.907 2.907 0 0 0-.659.019 8.267 8.267 0 0 0-2.343.63c-2.107.847-4.306 1.602-6.598 1.646a6.435 6.435 0 0 1-.637-.008l.495-.733a88.05 88.05 0 0 0 2.273-3.531l.122-.203c.409-.203.812-.418 1.208-.639 1.48-.789 2.901-1.684 4.384-2.467a23.396 23.396 0 0 0 2.469-1.401c.186-.097.41-.24.627-.301-.298-.092-.661-.038-.978.004-.885.144-1.707.533-2.49.955-1.357.733-2.712 1.499-4.151 2.053.303-.532.543-1.097.416-1.728a7.55 7.55 0 0 0-.193-.625c.491-.468.874-1.067 1.275-1.616.957-1.338 1.998-2.614 2.969-3.94-.048.672-.144 1.475.389 1.988.538.579 1.515.413 1.986-.165 1.786-1.97 2.858-4.448 3.698-6.959 1.745.027 4.223-1.92 5.579-2.742 1.707-1.148 3.529-2.413 4.637-4.212.684-1.057.918-2.346.696-3.581-.246-1.388-.328-2.757-.41-4.172.467 1.35 1.129 2.642 1.552 3.998.06.814 1.191 1.176 1.731.582.53-.695.775-1.579 1.174-2.353.536-1.258 1.085-2.514 1.536-3.807.282-.887.78-1.894.251-2.785-1.22-2.043-2.616-4.029-4.087-5.937 1.184.234 2.404.615 3.623.712l.039.152c.418 1.386.893 2.76 1.072 4.203.484 5.322-2.783 9.958-5.097 14.484-1.268 2.734-2.866 5.288-4.282 7.943-1.142 2.389-2.005 4.953-2.193 7.608zm1.569 84.538c-2.044-5.344-.271-7.81 3.337-11.668.347 2.536-2.128 9.263-3.337 11.668zm13.104 10.98c.808-4.181 2.191-8.229 3.372-12.314a6.728 6.728 0 0 1 .224 5.091c-.919 2.537-2.149 4.949-3.596 7.223zm15.443 2.223c.489-2.967.854-5.965.954-8.972.005-.272.008-.545.002-.817 2.389 2.268-.146 7.141-.956 9.789zm15.802-3.564c-.549 2.486-1.317 4.927-2.45 7.214.006-.264.014-.527.024-.789.045-4.249.928-8.403 1.702-12.562 1.383 1.76 1.184 4.083.724 6.137zm3.369 3.027c-.367.785-1.088 1.313-1.89 1.644.708-1.568 1.248-3.206 1.528-4.906.436-2.174.156-4.572-1.178-6.396-.636-.868-1.445-1.592-2.258-2.289-.481-.615-1.559-.36-1.704.403-.701.897-.643 2.193-.787 3.273a30.455 30.455 0 0 1-.389 4.582c-.068 1.046-.555 3.748-.828 6.27-.863-.804-1.751-1.614-2.311-2.62.242-.79.452-1.613.668-2.42.794-3.487 1.185-7.062 1.421-10.628.246-3.283.043-6.301-.23-9.626-.095-1.382-.249-2.772-.571-4.119.264-.023.53-.046.795-.063 1.65-.087 4.447-.262 5.847.652 1.127 1.178 1.575 2.818 2.151 4.305.694 1.853 1.11 4.21 1.392 6.271.701 5.232.475 10.776-1.656 15.667zm8.933-7.378c-.284 3.571-.889 7.124-1.943 10.551l.003-.262c.008-.69.016-1.381.036-2.072.068-4.263.595-8.503 1.085-12.735.969 1.303.848 2.98.819 4.518zm4.245-3.266c-.124 1.404-.366 2.794-.634 4.177-.029.146-.061.302-.088.462-.311.488-.653.958-1.021 1.407l-.501.619c.614-2.296 1.029-4.717.637-6.821-.353-1.809-1.869-2.954-3.355-3.858-.276-1.084-1.717-.651-1.601.379-.215.291-.153.679-.1 1.014.097.872.153 1.749.251 2.621.061 2.503-.308 4.98-.483 7.476a102.761 102.761 0 0 0-.194 3.682 7.136 7.136 0 0 0-.72-.549 9.943 9.943 0 0 0-1.015-.809c.189-.671.331-1.351.443-2.003.691-3.776.471-7.639.079-11.436-.501-4.297-.934-10.942-3.899-14.233-.962-1.024-2.357-1.366-3.719-1.131-.62.088-1.235.193-1.847.315-.452-.902-1.14-1.677-1.619-2.569a24.185 24.185 0 0 1-1.691-3.581c-.531-1.374-.845-2.813-1.209-4.235-.074-.246-.437-.137-.374.103.367 1.54.699 3.092 1.203 4.596.664 2.025 1.498 3.995 2.082 6.046-.103.024-.205.051-.308.077-.811.213-1.606.48-2.393.768a12.637 12.637 0 0 0-.395-1.031c-.459-1.937-2.419-1.524-3.951-1.274-.176-.988-.952-1.748-1.513-2.555-1.106-1.735-1.418-3.811-1.883-5.781a109.521 109.521 0 0 1-.742-4c-.021-.141-.023-.311-.083-.441-.156-.336-.64-.246-.681.109.245 2.721.822 5.417 1.219 8.123.151.93.304 1.861.4 2.798.067.707.076 1.494.309 2.175-.534.06-1.068.123-1.598.21-1.024.174-2.022.427-3.063.489-.348-.077-.566.395-.243.607.264.125.579.071.864.088a32.92 32.92 0 0 1 2.494.016c1.748.12 3.421.639 5.105 1.084.887 1.808 1.211 3.797 1.384 5.785.547 4.367.409 8.783-.162 13.14-.317 2.551-.824 5.08-1.643 7.519-.429.936-.639 2.406-1.835 2.605-.625.101-1.256.172-1.889.145.824-1.573 1.423-3.266 1.883-4.979.745-2.559.696-5.812-1.69-7.497-.633-.468-1.331-.824-2.024-1.193a1.11 1.11 0 0 0-.731-.453c-.777-.13-1.434.736-1.105 1.445-.035.461.346.828.398 1.28.375 2.704-.054 5.446-.546 8.108-.04.336-.158.811-.301 1.362-1.221-1.034-2.441-2.141-3.128-3.577.142-.359.263-.722.367-1.079 1.054-3.014 1.67-6.159 2.033-9.328a69.3 69.3 0 0 0 .366-6.008c.031-1.808.057-3.649-.337-5.422-.397-1.849-1.899-3.171-3.457-4.107-.682-.444-1.436-.785-2.088-1.267-.345-.463-.524-.93-.725-1.5-.355-1.263-.532-2.571-.681-3.872-.02-.192-.213-.328-.399-.303a.36.36 0 0 0-.303.399c.039.341.053.686.077 1.028.066 1.447.277 2.92.133 4.381-.413 1.679.877 2.833 2.124 3.706.847.625 1.971 1.206 2.168 2.338.342 2.453.078 4.944-.05 7.407-.244 3.024-.798 6.426-1.813 9.353-.435 1.165-.893 2.324-1.577 3.369-.379.53-.823 1.13-1.462 1.343-.426.138-.856.281-1.294.376 1.592-2.788 2.805-6.058 2.708-7.142.272-2.354-.988-4.377-2.112-6.328-.097-.162-.125-.327-.151-.51-.204-.831-1.465-.827-1.67-.001-.306.227-.404.61-.409.971-.906 2.716-1.779 5.436-2.426 8.231-.069.375-.211.88-.386 1.462a2.952 2.952 0 0 1-.212-.316c-1.16-1.814-2.122-3.729-2.648-5.827a2.07 2.07 0 0 1-.123-.418c1.548-1.877 2.818-4.397 3.461-6.28.945-2.506.96-4.842-.458-7.171-.505-1.253-.29-2.649-.205-3.962.119-.983.271-1.958.508-2.921a.415.415 0 0 0-.296-.579.409.409 0 0 0-.467.301c-.158.627-.346 1.268-.497 1.917-.349 1.447-.623 2.912-.959 4.361-.439 1.338.041 2.686.145 4.032-.094 3.096-1.883 6.23-4.211 8.216a4.502 4.502 0 0 1-1.451.772c-.623.186-1.243.37-1.882.401.702-1.868 1.333-3.761 1.759-5.713.373-2.019 1.326-4.837-.524-6.384-.408-.871-1.686-.688-1.975.176a89.289 89.289 0 0 0-1.437 1.755c-1.3 1.485-2.303 3.153-2.82 4.974a11.502 11.502 0 0 0-.774-1.227c-.29-.411-.634-.786-.85-1.244-.834-2.156-.562-4.599-.091-6.815.178-.657.465-1.307 1.031-1.719.996-.759 2.041-1.45 3.068-2.168 2.83-2.094 5.636-4.628 6.848-8.025.87-2.499 1.311-5.127 1.613-7.75.414-3.895.463-7.868-.377-11.714-.216-2.275.922-4.424 1.166-6.652.071-.526-.652-.874-1.035-.499a.6.6 0 0 0-.173.599 12.63 12.63 0 0 1-.179.865c-.399 1.519-.784 3.054-1.324 4.53-.338.717-.578 1.472-.646 2.265-.174 2.329-.237 4.664-.502 6.986-.489 3.644-.994 7.41-2.635 10.74a12.695 12.695 0 0 1-1.587 2.075c-.365-1.437-1.102-2.855-1.484-4.228-.606-1.583-.405-3.205.187-4.758 1.39-4.347 2.615-8.846 2.176-13.454a18.089 18.089 0 0 0-.142-1.292c.357-1.497.559-3.038.807-4.556.399-3.668.911-7.332 1.109-11.018.076-2.444.177-4.89.111-7.336-.074-1.917-.095-3.833.052-5.747.215-3.027.714-6.03 1.396-8.986.884-3.636 2.224-7.14 3.489-10.655.707-1.877 1.625-3.662 2.619-5.401 1.079-1.971 2.479-3.773 3.328-5.864.888-2.489.31-5.172 0-7.715-.04-.307-.078-.613-.115-.92.39.76.783 1.524 1.167 2.299.137.266.271.533.404.802-.105.428-.193.861-.264 1.293-.075.56-.005 1.107.023 1.666a24.164 24.164 0 0 1-.188 4.259 25.2 25.2 0 0 1-1.936 6.208c-.699 1.474-1.583 2.849-2.3 4.313-.846 1.698-1.238 3.564-1.511 5.43-.299 2.817-.233 5.663-.297 8.493.023 2.455-.159 4.899-.234 7.349-.003.269.322.391.518.241.099-.074.132-.186.165-.301.272-1.072.55-2.144.835-3.213.712-2.247 1.83-4.342 3.211-6.247 2.888-3.964 6.815-7.303 8.501-12.031.548-1.675.669-3.465.769-5.215.013-.086.022-.172.03-.258.513.58 1.036 1.152 1.566 1.717-.384 1.257-.131 2.716-.428 4.009-.353 1.912-1.159 3.687-1.902 5.472-1.259 3.322-2.952 6.451-4.384 9.696-1.023 2.456-1.666 5.066-2.028 7.698-.658 5.001-.665 10.053-1.013 15.077-.065 1.64-.534 3.317-.556 4.962-.455 1.855-1.009 3.756-.281 5.572 1.48-2.07 1.581-4.736 2.249-7.128.735-3.077 1.489-6.166 2.793-9.058 1.658-3.566 4.317-6.515 6.62-9.663 2.969-4.298 5.978-8.607 8.48-13.199.453-.796.879-1.712 1.13-2.65.185.209.369.419.556.633.135.296.311.535.514.722.051.903.111 1.805.178 2.707-.087 1.279-.033 2.571-.257 3.839-.681 3.455-1.519 6.882-2.355 10.302-.799 3.526-1.732 7.018-2.572 10.534-.803 3.571-1.279 7.214-2.253 10.746-.162.464-.309.934-.454 1.404-.176.405-.354.809-.536 1.211-.501 1.034-.833 2.146-.846 3.303 1.381-1.215 2.037-2.99 2.873-4.585 2.693-5.19 5.489-10.364 7.448-15.887.321-.938.614-1.883.877-2.838.902 6.05 2.014 12.07 2.953 18.114.524 3.171 1.283 6.298 1.801 9.47.202 3.012 1.532 5.769 3.136 8.279-1.505-.547-2.875-1.517-4.402-1.954-1.154.114-.639 1.432-.37 2.129.522 1.385 1.137 2.735 1.624 4.134a42.105 42.105 0 0 1 1.264 4.291c.427 1.492.544 3.165 1.562 4.406 2.203 3.306 11.569 1.251 12.717 4.175 1.087 5.688 1.241 11.526 1.199 17.3z"/><path fill="#000" d="m387.135 270.809-.046-.011c-.066-.014-.132-.023-.198-.039l.244.05zm69.728 18.796c-1.385 1.901-1.678 4.313-2.529 6.463-.536 1.376-.896 2.848-.665 4.334 1.247-1.157 1.743-2.818 2.176-4.417.535-2.075 1.456-4.212 1.018-6.38zm-.558 11.473c1.428-1.54 1.682-3.783 1.76-5.805-.809 1.837-1.993 3.699-1.76 5.805zm17.699 23.944c.572.654.612 1.658 1.046 2.413.404.876 1.035 1.621 1.687 2.321-.059-1.833-1.032-4.038-2.733-4.734zm-.088 4.199c-.012 1.174.451 2.413 1.582 2.965.252-1.172-.437-2.593-1.582-2.965zm-169.12-170.785c.429-1.221.615-2.502.578-3.796-1.062.857-1.545 2.211-1.853 3.499-.396 1.295-.564 2.647-.369 3.994.76-1.118 1.304-2.381 1.644-3.697zm2.293 2.192h.001c2.155-1.799 2.906-4.796 3.083-7.495-2.135 1.407-3.626 4.979-3.088 7.493l.004.002zm7.567 91.584c-1.53-1.604-3.856-1.677-5.932-1.787a6.158 6.158 0 0 0-3.777.715c1.423.878 3.216 1.092 4.872 1.353 1.613.352 3.292.361 4.837-.281zm-4.821 2.777c-1.665.239 1.777 1.984 2.359 2.158 1.262.435 2.635.25 3.837-.267-1.159-2.2-4.005-2.824-6.196-1.891zm-40.501-23.081c-1.471-.49-3.022-.259-4.441.286-1.558.553-3.488.952-4.393 2.471.742-.256 1.582-.246 2.349-.461.664-.16 1.494-.39 2.202-.528.628-.135 1.271-.213 1.888-.392.894-.3 1.668-.772 2.395-1.376zm-2.484 4.582c.574-.035 1.155.171 1.735.188 1.188.095 2.379-.445 3.201-1.284-.675-.723-1.771-.952-2.718-.761-.942.218-1.922.92-2.218 1.857zm-59.679 46.087c.4-.433.398-4.311-.174-3.171-1.106 2.308-1.854 4.794-3.266 6.962-1.101 2.083-2.754 4.034-2.821 6.489 2.748-1.467 5.125-7.35 6.261-10.28zm-8.268 9.941c.607-1.802 1.568-3.732.866-5.646-1.511 1.602-2.148 3.739-3.109 5.678-.782 1.376-1.17 2.933-.885 4.509 1.82-.832 2.559-2.756 3.128-4.541zm24.234 25.993c2.746.059 3.167-.673.313-1.493-.855-.167-1.67.17-2.497.313.449.618 1.407 1.025 2.184 1.18zm-81.753 8.702c-.927 2.443-2.418 4.769-2.507 7.442 1.405-1.037 2.058-2.731 2.709-4.296.875-2.333 1.986-4.77 1.761-7.311-.9 1.279-1.426 2.698-1.963 4.165zm-5.847 9.005.003.003a5.695 5.695 0 0 0 2.755-5.236c-1.738 1.151-2.757 3.149-2.758 5.233zm-57.458 28.394a13.175 13.175 0 0 0-.216 3.849 9.242 9.242 0 0 0 .93 3.941l.003.002c.619-1.278.694-2.717.47-4.101-.117-1.296-.444-2.606-1.187-3.691zm-1.519 5.136.001-.009c-.767.664-1.055 1.857-.547 2.777l.003.002c.813-.769.761-1.765.543-2.771v.001z"/></g><defs><clipPath id="a"><path fill="#fff" d="M0 0h500v500H0z"/></clipPath></defs></svg>